<svg xmlns="http://www.w3.org/2000/svg" width="394" height="1384" viewBox="0 0 394 1384"><svg width="394" height="84" fill="none" viewBox="-2 -2 394 84"><mask id="a" width="390" height="80" x="0" y="0" maskUnits="userSpaceOnUse" style="mask-type:alpha"><path fill="#fff" d="M390 0H0v80h390z"/></mask><path fill="#fff" fill-rule="evenodd" d="M44.81 12.064C20.01 12.133-.056 24.97 0 40.693l.023 1.678c.067 16.671 17.657 30.1 44.98 30 27.51-.056 44.855-13.63 44.835-30.262a8 8 0 0 1-.023-.968c.003-.199.007-.422.004-.708-.057-15.634-20.099-28.37-44.806-28.37h-.203zM2.514 36.956a17.5 17.5 0 0 0-.396 3.746c.045 14.936 19.232 26.991 42.858 26.926 23.627-.066 42.745-12.228 42.702-27.163a17.4 17.4 0 0 0-.328-3.311c-9.502 2.044-16.72 5.079-18.519 5.86-4.222-3.538-14.073-11.768-16.698-13.666-1.498-1.103-2.573-1.675-3.458-1.934A5.4 5.4 0 0 0 47 27.165a7.3 7.3 0 0 0-2.13.341c-1.69.506-3.368 1.8-5.003 3.06l-.068.051-.09.047c-1.517 1.183-3.129 2.416-4.332 2.653-.509.097-1.066.192-1.623.199-1.345.017-2.556-.371-3.028-.906-.096-.087-.05-.222.133-.45l.047-.046 3.711-3.902c2.89-2.817 5.642-5.498 12-5.664l.325-.003c3.86-.004 7.74 1.624 8.3 1.86l.033.014c3.69 1.752 7.555 2.602 11.36 2.602 3.951-.003 8.022-.972 12.31-2.868C71.15 17.7 58.85 13.54 45.01 13.54h-.191c-13.497.037-25.522 4.022-33.345 10.216 5.425 2.101 11.968 3.737 14.035 3.847l.907.056.906.057c1.393-.017 2.78-.391 4.123-.767a20 20 0 0 1 2.591-.615q-.113.111-.237.225a6 6 0 0 0-.496.502l-3.758 3.95c-.275.273-.96 1.087-.531 2.024q.285.605.988 1.067c.888.572 2.52.958 4.005.983a9.4 9.4 0 0 0 1.622-.154c1.417-.3 2.898-1.398 4.49-2.579l.535-.396c1.377-1.093 3.404-2.464 4.931-2.886.416-.095.973-.192 1.39-.199a1.1 1.1 0 0 1 .372.04c1.024.124 2.001.472 3.736 1.707 2.387 1.739 11.153 9.044 15.09 12.326 1.162.968 1.904 1.586 1.935 1.606 0 0 .89.753.815 1.966-.039.674-.403 1.26-1.092 1.719q-.9.548-1.804.56a3 3 0 0 1-1.505-.394q-.066-.036-.079-.038c-.048-.043-4.79-4.204-6.524-5.576-.282-.22-.562-.397-.795-.438a.43.43 0 0 0-.367.184c-.277.317.055.762.385 1.073l5.497 5.317s.704.622.76 1.428c.058.898-.397 1.62-1.32 2.215-.643.411-1.291.642-1.94.609-.809.008-1.404-.364-1.57-.468l-.014-.009-.798-.754-.201-.189c-1.395-1.313-2.81-2.643-3.84-3.487-.28-.222-.561-.398-.84-.394a.44.44 0 0 0-.324.14c-.137.136-.226.361.102.759.142.179.284.313.284.313l4.047 4.348c.047.045.847.932.116 1.839l-.137.18-.184.183-.184.181c-.688.549-1.618.604-1.943.607-.184.002-.37.004-.555-.038-.42-.084-.654-.172-.794-.306l-.048-.044-.158-.151c-.557-.539-2.3-2.224-3.784-3.391l-.032-.024c-.229-.172-.498-.375-.764-.37a.53.53 0 0 0-.37.14c-.32.363.15.895.385 1.072l3.436 3.637c0 .033-.023.065-.068.129l-.068.099c-.137.18-.552.544-1.756.739-.07 0-.15.012-.232.025-.081.012-.162.024-.232.025-1.299.015-2.654-.597-3.356-.948.32-.676.495-1.396.487-2.113.012-2.739-2.292-4.955-5.123-4.922l-.184.002c.075-1.257-.093-3.59-2.613-4.634-.7-.308-1.444-.435-2.141-.468a4.6 4.6 0 0 0-1.576.288c-.523-.984-1.367-1.689-2.486-2.035a5.3 5.3 0 0 0-1.815-.294 5.15 5.15 0 0 0-2.867.886c-.801-.976-2.06-1.545-3.36-1.575-1.161.015-2.224.431-3.051 1.249-1.078-.794-5.287-3.347-16.645-5.814a61 61 0 0 1-2.369-.631zm19.425 9.446c-.017-1.436 1.22-2.618 2.706-2.635 1.345-.015 2.519 1.001 2.674 2.3l.103.718.41-.589c.046-.089 1.14-1.673 3.183-1.697.37-.007.788.035 1.162.164 1.63.475 1.882 1.908 1.935 2.491.05.356.28.356.328.356h.002c.101-.001.177-.05.246-.094a1 1 0 0 1 .077-.046 2.82 2.82 0 0 1 1.985-.831c.463-.005.976.122 1.49.342 2.398.975 1.537 3.794 1.413 4.198l-.014.049c-.227.54-.222.765-.035.897l.094.044.094-.002c.092-.002.276-.048.507-.14.371-.139.88-.281 1.39-.286 1.95.022 3.5 1.53 3.523 3.368-.024 1.75-1.584 3.25-3.534 3.273-1.902.022-3.406-1.395-3.522-3.234-.001-.135-.007-.582-.377-.579-.14.002-.279.094-.415.23-.414.364-.92.775-1.71.738a2.5 2.5 0 0 1-1.117-.256c-2.006-.782-2.023-2.084-1.937-2.624a.42.42 0 0 0-.052-.403l-.14-.089-.138.002c-.093.002-.186.048-.323.139-.552.41-1.107.595-1.71.605a2.3 2.3 0 0 1-.93-.169c-2.615-1.003-2.413-3.382-2.281-4.104-.002-.134-.004-.27-.098-.31l-.188-.135-.183.184c-.504.5-1.197.731-1.893.74h-.032c-1.473 0-2.676-1.19-2.693-2.615" clip-rule="evenodd" mask="url(#a)"/></svg><svg width="394" height="82" y="84" fill="none" viewBox="-2 -2 394 82"><g fill-rule="evenodd" clip-path="url(#a)" clip-rule="evenodd"><path fill="#016FD0" d="M0-6h90v90H0z"/><path fill="#fff" d="M17.45 56.699V42.547H32.4l1.601 2.104 1.648-2.1H90V55.7s-1.4.95-3.05.95H56.898l-1.8-2.25v2.25h-5.95v-3.8s-.8.55-2.548.55h-2v3.25h-9L34 54.498l-1.65 2.15-14.9.05zM0 31.949l3.352-7.852h5.847l1.902 4.404v-4.4h7.25l1.148 3.199 1.102-3.2H53.15v1.6s1.7-1.599 4.5-1.599l10.551.05 1.9 4.351v-4.4h6.051l1.645 2.498v-2.496h6.204v14.152H77.85l-1.601-2.501v2.498H67.35l-.9-2.25h-2.402l-.9 2.25h-6.052c-2.396 0-3.947-1.552-3.947-1.552v1.552h-9.1l-1.8-2.25v2.25H8.348l-.9-2.25H5.046l-.9 2.25H0z"/><path fill="#016FD0" d="M4.55 25.801 0 36.399h2.948l.85-2.098h4.904L9.55 36.4h3.05L8.05 25.801zm1.7 2.452 1.5 3.696h-3l1.5-3.7zm6.651 8.146V25.801l4.199.05 2.452 6.796 2.399-6.846H26.1v10.598h-2.65v-7.796l-2.8 7.8h-2.3l-2.851-7.8v7.8zm14.999 0V25.801h8.65V28.2H30.6V30h5.8v2.2h-5.8v1.9h5.95v2.3zm10.148-10.598v10.598h2.65V32.65H41.8l3.15 3.75h3.25l-3.501-3.9c1.452-.102 2.902-1.35 2.902-3.252 0-2.25-1.75-3.448-3.7-3.448zm2.65 2.399H43.7c.75 0 1.25.55 1.25 1.099 0 .701-.701 1.101-1.2 1.101h-3.051zm10.751 8.2h-2.7V25.8h2.7v10.598zm6.4 0h-.6c-2.799 0-4.55-2.201-4.55-5.249 0-3.103 1.701-5.35 5.252-5.35h2.898v2.498H57.8c-1.45 0-2.449 1.149-2.449 2.852 0 2.049 1.148 2.899 2.849 2.899h.701l-1.049 2.35zm5.75-10.599-4.55 10.598h2.949l.853-2.098h4.9L68.6 36.4h3.05L67.1 25.801zm1.7 2.452 1.5 3.696H63.8l1.499-3.7zm6.602 8.146V25.801h3.351l4.299 6.648V25.8h2.65v10.598h-3.252L74.55 29.55v6.85zM19.3 54.9V44.301h8.6V46.7h-5.95v1.8h5.801v2.25h-5.803v1.85H27.9v2.299zm42.25 0V44.301h8.65V46.7h-5.95v1.8h5.801v2.25h-5.803v1.85H70.2v2.299zm-33.3 0 4.199-5.198-4.299-5.4h3.35l2.551 3.351 2.548-3.351h3.2l-4.249 5.3 4.252 5.298H36.45l-2.501-3.25-2.4 3.25h-3.298zM40.1 44.35v10.6h2.7V51.6h2.799c2.352 0 4.152-1.25 4.152-3.7 0-2.001-1.402-3.55-3.801-3.55zm2.7 2.35h2.948c.751 0 1.303.45 1.303 1.2 0 .699-.552 1.199-1.303 1.199h-2.899v-2.4zm8.1-2.4v10.6h2.65v-3.75h1.099l3.15 3.749h3.252l-3.5-3.898c1.449-.102 2.898-1.35 2.898-3.252 0-2.25-1.75-3.448-3.7-3.448zm2.65 2.4h3.001c.748 0 1.248.549 1.248 1.101 0 .699-.699 1.099-1.198 1.099H53.55zm17.9 8.199v-2.297h5.301c.798 0 1.099-.403 1.099-.9 0-.453-.35-.9-1.099-.9H74.35c-2.098 0-3.249-1.253-3.249-3.153 0-1.7 1.049-3.351 4.15-3.351H80.4L79.299 46.7h-4.45c-.85 0-1.099.45-1.099.85 0 .45.301.9.95.9h2.501c2.297 0 3.3 1.3 3.3 3.05 0 1.85-1.102 3.352-3.452 3.352l-5.598.047zm9.699 0v-2.297h5.052c.798 0 1.099-.403 1.099-.9 0-.453-.35-.9-1.099-.9h-2.15c-2.101 0-3.25-1.253-3.25-3.153 0-1.7 1.05-3.351 4.15-3.351H90L88.901 46.7h-4.35c-.851 0-1.102.45-1.102.85 0 .45.3.9.952.9h2.297C89 48.45 90 49.75 90 51.5c0 1.85-1.099 3.352-3.451 3.352z"/></g></svg><svg width="394" height="82" y="166" fill="none" viewBox="-2 -2 394 82"><g clip-path="url(#a)"><path fill="#fff" d="M124.743 51.228h3.9V27.19h-3.9v9.046c-1.449-1.838-3.529-2.847-5.757-2.847-4.643 0-7.986 3.532-7.986 9.154 0 5.73 3.38 9.119 7.986 9.119 2.303 0 4.383-1.082 5.757-2.812v2.38zm0-5.226c-.892 1.298-2.786 2.307-4.643 2.307-3.083 0-5.051-2.415-5.051-5.767 0-3.387 1.968-5.802 5.051-5.802 1.857 0 3.751 1.045 4.643 2.343zm17.496-14.812 6.129-5.19h-3.715l-5.2 5.19zm-9.657 11.316c0 5.514 4.011 9.155 9.397 9.155 2.86 0 5.497-.865 7.28-2.523l-1.783-2.487c-1.263 1.225-3.343 1.91-5.088 1.91-3.38 0-5.423-2.162-5.72-4.793h13.854v-.901c0-5.478-3.454-9.479-8.84-9.479-5.312 0-9.1 4.073-9.1 9.118m9.1-6.018c3.528 0 4.977 2.559 5.051 4.613H136.63c.186-2.127 1.709-4.613 5.052-4.613m12.689 14.74h3.9V48.85c1.375 1.73 3.417 2.812 5.757 2.812 4.569 0 7.949-3.388 7.949-9.119 0-5.622-3.343-9.154-7.949-9.154-2.265 0-4.345 1.01-5.757 2.847V27.19h-3.9v24.04zm3.9-5.226V39.12c.855-1.298 2.786-2.38 4.606-2.38 3.12 0 5.089 2.416 5.089 5.803s-1.969 5.767-5.089 5.767c-1.82 0-3.751-1.01-4.606-2.307zm19.614-14.308c1.337 0 2.414-1.045 2.414-2.342s-1.077-2.343-2.414-2.343c-1.3 0-2.414 1.045-2.414 2.343 0 1.297 1.114 2.342 2.414 2.342m-1.931 19.534h3.9V33.821h-3.9zm14.345.433c1.82 0 2.971-.469 3.677-1.118l-.929-2.847c-.297.325-1.003.613-1.746.613-1.114 0-1.708-.865-1.708-2.054v-9.119h3.64v-3.315h-3.64v-4.758h-3.9v4.758h-2.972v3.315h2.972v10.056c0 2.883 1.597 4.469 4.606 4.469m14.572 0c5.757 0 9.248-4.145 9.248-9.155 0-4.973-3.491-9.118-9.248-9.118-5.683 0-9.212 4.145-9.212 9.118 0 5.01 3.529 9.155 9.212 9.155m0-3.352c-3.306 0-5.163-2.703-5.163-5.803 0-3.063 1.857-5.766 5.163-5.766 3.343 0 5.2 2.703 5.2 5.766 0 3.1-1.857 5.803-5.2 5.803"/><path fill="#016FD0" fill-rule="evenodd" d="M0-6h90v90H0z" clip-rule="evenodd"/><path fill="#fff" fill-rule="evenodd" d="M17.45 56.699V42.547H32.4l1.601 2.104 1.648-2.1H90V55.7s-1.4.95-3.05.95H56.898l-1.8-2.25v2.25h-5.95v-3.8s-.8.55-2.548.55h-2v3.25h-9L34 54.498l-1.65 2.15-14.9.05zM0 31.949l3.352-7.852h5.847l1.902 4.404v-4.4h7.25l1.148 3.199 1.102-3.2H53.15v1.6s1.7-1.599 4.5-1.599l10.551.05 1.9 4.351v-4.4h6.051l1.645 2.498v-2.496h6.204v14.152H77.85l-1.601-2.501v2.498H67.35l-.9-2.25h-2.402l-.9 2.25h-6.052c-2.396 0-3.947-1.552-3.947-1.552v1.552h-9.1l-1.8-2.25v2.25H8.348l-.9-2.25H5.046l-.9 2.25H0z" clip-rule="evenodd"/><path fill="#016FD0" fill-rule="evenodd" d="M4.55 25.801 0 36.399h2.948l.85-2.098h4.904L9.55 36.4h3.05L8.05 25.801zm1.7 2.452 1.5 3.696h-3l1.5-3.7zm6.651 8.146V25.801l4.199.05 2.452 6.796 2.399-6.846H26.1v10.598h-2.65v-7.796l-2.8 7.8h-2.3l-2.851-7.8v7.8zm14.999 0V25.801h8.65V28.2H30.6V30h5.8v2.2h-5.8v1.9h5.95v2.3zm10.148-10.598v10.598h2.65V32.65H41.8l3.15 3.75h3.25l-3.501-3.9c1.452-.102 2.902-1.35 2.902-3.252 0-2.25-1.75-3.448-3.7-3.448zm2.65 2.399H43.7c.75 0 1.25.55 1.25 1.099 0 .701-.701 1.101-1.2 1.101h-3.051zm10.751 8.2h-2.7V25.8h2.7v10.598zm6.4 0h-.6c-2.799 0-4.55-2.201-4.55-5.249 0-3.103 1.701-5.35 5.252-5.35h2.898v2.498H57.8c-1.45 0-2.449 1.149-2.449 2.852 0 2.049 1.148 2.899 2.849 2.899h.701l-1.049 2.35zm5.75-10.599-4.55 10.598h2.949l.853-2.098h4.9L68.6 36.4h3.05L67.1 25.801zm1.7 2.452 1.5 3.696H63.8l1.499-3.7zm6.602 8.146V25.801h3.351l4.299 6.648V25.8h2.65v10.598h-3.252L74.55 29.55v6.85zM19.3 54.9V44.301h8.6V46.7h-5.95v1.8h5.801v2.25h-5.803v1.85H27.9v2.299zm42.25 0V44.301h8.65V46.7h-5.95v1.8h5.801v2.25h-5.803v1.85H70.2v2.299zm-33.3 0 4.199-5.198-4.299-5.4h3.35l2.551 3.351 2.548-3.351h3.2l-4.249 5.3 4.252 5.298H36.45l-2.501-3.25-2.4 3.25h-3.298zM40.1 44.35v10.6h2.7V51.6h2.799c2.352 0 4.152-1.25 4.152-3.7 0-2.001-1.402-3.55-3.801-3.55zm2.7 2.35h2.948c.751 0 1.303.45 1.303 1.2 0 .699-.552 1.199-1.303 1.199h-2.899v-2.4zm8.1-2.4v10.6h2.65v-3.75h1.099l3.15 3.749h3.252l-3.5-3.898c1.449-.102 2.898-1.35 2.898-3.252 0-2.25-1.75-3.448-3.7-3.448zm2.65 2.4h3.001c.748 0 1.248.549 1.248 1.101 0 .699-.699 1.099-1.198 1.099H53.55zm17.9 8.199v-2.297h5.301c.798 0 1.099-.403 1.099-.9 0-.453-.35-.9-1.099-.9H74.35c-2.098 0-3.249-1.253-3.249-3.153 0-1.7 1.049-3.351 4.15-3.351H80.4L79.299 46.7h-4.45c-.85 0-1.099.45-1.099.85 0 .45.301.9.95.9h2.501c2.297 0 3.3 1.3 3.3 3.05 0 1.85-1.102 3.352-3.452 3.352l-5.598.047zm9.699 0v-2.297h5.052c.798 0 1.099-.403 1.099-.9 0-.453-.35-.9-1.099-.9h-2.15c-2.101 0-3.25-1.253-3.25-3.153 0-1.7 1.05-3.351 4.15-3.351H90L88.901 46.7h-4.35c-.851 0-1.102.45-1.102.85 0 .45.3.9.952.9h2.297C89 48.45 90 49.75 90 51.5c0 1.85-1.099 3.352-3.451 3.352z" clip-rule="evenodd"/></g></svg><svg width="394" height="82" y="248" fill="none" viewBox="-2 -2 394 82"><path fill="#fff" fill-rule="evenodd" d="M23.232 35.987 6.994 42.985a9.3 9.3 0 0 1 16.24-6.998zm-6.974-10.106c7.663 0 14.086 5.302 15.802 12.437l-6.55 2.864-.002-.014-6.705 2.945-16.076 7.032A16.14 16.14 0 0 1 0 42.135c0-8.976 7.277-16.254 16.256-16.254zm11.357 27.882c-5.822 5.525-13.522 6.066-20.287 1.96l3.824-5.812c3.85 2.3 7.717 1.929 11.602-1.123l4.86 4.977v-.002zm6.618-4.023L34.192 19h5.824v29.91c0 .287.037.54.413.685l5.065 1.972-2.282 5.935-5.935-2.511c-2.251-.952-3.04-2.333-3.044-5.251m21.928-.517a9.26 9.26 0 0 1-3.587-7.324 9.25 9.25 0 0 1 2.892-6.729l-3.763-6.096c-3.783 2.995-6.211 7.625-6.211 12.823 0 5.604 2.819 10.547 7.116 13.494l3.551-6.168zm2.55-16.057a9.28 9.28 0 0 1 11.822 5.461l7.209-.6C76 30.861 69.55 25.54 61.85 25.54a16.3 16.3 0 0 0-6.147 1.2l3.009 6.423v.002zm12.405 9.182c-.235 4.913-4.293 8.827-9.266 8.827-.78 0-1.535-.098-2.258-.278l-2.828 6.547a16.4 16.4 0 0 0 5.086.81c8.808 0 15.986-6.963 16.339-15.683l-7.073-.225" clip-rule="evenodd"/></svg><svg width="394" height="82" y="330" fill="none" viewBox="-2 -2 394 82"><path fill="#F79E1B" fill-rule="evenodd" d="M108.25 39.028c0 18.241-14.988 33.028-33.476 33.028S41.298 57.27 41.298 39.028C41.298 20.788 56.286 6 74.774 6s33.476 14.787 33.476 33.028" clip-rule="evenodd"/><path fill="#EB001B" fill-rule="evenodd" d="M66.952 39.028c0 18.241-14.988 33.028-33.476 33.028S0 57.27 0 39.028C0 20.788 14.988 6 33.476 6s33.476 14.787 33.476 33.028" clip-rule="evenodd"/><path fill="#FF5F00" fill-rule="evenodd" d="M54.125 13.028C46.315 19.075 41.3 28.47 41.3 39.025s5.014 19.958 12.825 26.004c7.81-6.046 12.825-15.45 12.825-26.004s-5.014-19.95-12.825-25.997" clip-rule="evenodd"/><path fill="#fff" d="M146.743 47.228h3.9V23.19h-3.9v9.046c-1.449-1.838-3.529-2.847-5.757-2.847-4.643 0-7.986 3.532-7.986 9.154 0 5.73 3.38 9.119 7.986 9.119 2.303 0 4.383-1.082 5.757-2.812v2.38zm0-5.226c-.892 1.298-2.786 2.307-4.643 2.307-3.083 0-5.051-2.415-5.051-5.767 0-3.387 1.968-5.802 5.051-5.802 1.857 0 3.751 1.045 4.643 2.343zm17.496-14.812 6.129-5.19h-3.715l-5.2 5.19zm-9.657 11.316c0 5.514 4.011 9.155 9.397 9.155 2.86 0 5.497-.865 7.28-2.523l-1.783-2.487c-1.263 1.225-3.343 1.91-5.088 1.91-3.38 0-5.423-2.162-5.72-4.793h13.854v-.901c0-5.478-3.454-9.479-8.84-9.479-5.312 0-9.1 4.073-9.1 9.118m9.1-6.018c3.528 0 4.977 2.559 5.051 4.613H158.63c.186-2.127 1.709-4.613 5.052-4.613m12.689 14.74h3.9V44.85c1.375 1.73 3.417 2.812 5.757 2.812 4.569 0 7.949-3.388 7.949-9.119 0-5.622-3.343-9.154-7.949-9.154-2.265 0-4.345 1.01-5.757 2.847V23.19h-3.9v24.04zm3.9-5.226V35.12c.855-1.298 2.786-2.38 4.606-2.38 3.12 0 5.089 2.416 5.089 5.803s-1.969 5.767-5.089 5.767c-1.82 0-3.751-1.01-4.606-2.307zm19.614-14.308c1.337 0 2.414-1.045 2.414-2.342s-1.077-2.343-2.414-2.343c-1.3 0-2.414 1.045-2.414 2.343 0 1.297 1.114 2.342 2.414 2.342m-1.931 19.534h3.9V29.821h-3.9zm14.345.433c1.82 0 2.971-.469 3.677-1.118l-.929-2.847c-.297.325-1.003.613-1.746.613-1.114 0-1.708-.865-1.708-2.054v-9.119h3.64v-3.315h-3.64v-4.758h-3.9v4.758h-2.972v3.315h2.972v10.056c0 2.883 1.597 4.469 4.606 4.469m14.572 0c5.757 0 9.248-4.145 9.248-9.155 0-4.973-3.491-9.118-9.248-9.118-5.683 0-9.212 4.145-9.212 9.118 0 5.01 3.529 9.155 9.212 9.155m0-3.352c-3.306 0-5.163-2.703-5.163-5.803 0-3.063 1.857-5.766 5.163-5.766 3.343 0 5.2 2.703 5.2 5.766 0 3.1-1.857 5.803-5.2 5.803"/></svg><svg width="394" height="82" y="412" fill="none" viewBox="-2 -2 394 82"><path fill="#F79E1B" fill-rule="evenodd" d="M108.25 39.028c0 18.241-14.988 33.028-33.476 33.028S41.298 57.27 41.298 39.028C41.298 20.788 56.286 6 74.774 6s33.476 14.787 33.476 33.028" clip-rule="evenodd"/><path fill="#EB001B" fill-rule="evenodd" d="M66.952 39.028c0 18.241-14.988 33.028-33.476 33.028S0 57.27 0 39.028C0 20.788 14.988 6 33.476 6s33.476 14.787 33.476 33.028" clip-rule="evenodd"/><path fill="#FF5F00" fill-rule="evenodd" d="M54.125 13.028C46.315 19.075 41.3 28.47 41.3 39.025s5.014 19.958 12.825 26.004c7.81-6.046 12.825-15.45 12.825-26.004s-5.014-19.95-12.825-25.997" clip-rule="evenodd"/><path fill="#333" d="M146.743 47.228h3.9V23.19h-3.9v9.046c-1.449-1.838-3.529-2.847-5.757-2.847-4.643 0-7.986 3.532-7.986 9.154 0 5.73 3.38 9.119 7.986 9.119 2.303 0 4.383-1.082 5.757-2.812v2.38zm0-5.226c-.892 1.298-2.786 2.307-4.643 2.307-3.083 0-5.051-2.415-5.051-5.767 0-3.387 1.968-5.802 5.051-5.802 1.857 0 3.751 1.045 4.643 2.343zm17.496-14.812 6.129-5.19h-3.715l-5.2 5.19zm-9.657 11.316c0 5.514 4.011 9.155 9.397 9.155 2.86 0 5.497-.865 7.28-2.523l-1.783-2.487c-1.263 1.225-3.343 1.91-5.088 1.91-3.38 0-5.423-2.162-5.72-4.793h13.854v-.901c0-5.478-3.454-9.479-8.84-9.479-5.312 0-9.1 4.073-9.1 9.118m9.1-6.018c3.528 0 4.977 2.559 5.051 4.613H158.63c.186-2.127 1.709-4.613 5.052-4.613m12.689 14.74h3.9V44.85c1.375 1.73 3.417 2.812 5.757 2.812 4.569 0 7.949-3.388 7.949-9.119 0-5.622-3.343-9.154-7.949-9.154-2.265 0-4.345 1.01-5.757 2.847V23.19h-3.9v24.04zm3.9-5.226V35.12c.855-1.298 2.786-2.38 4.606-2.38 3.12 0 5.089 2.416 5.089 5.803s-1.969 5.767-5.089 5.767c-1.82 0-3.751-1.01-4.606-2.307zm19.614-14.308c1.337 0 2.414-1.045 2.414-2.342s-1.077-2.343-2.414-2.343c-1.3 0-2.414 1.045-2.414 2.343 0 1.297 1.114 2.342 2.414 2.342m-1.931 19.534h3.9V29.821h-3.9zm14.345.433c1.82 0 2.971-.469 3.677-1.118l-.929-2.847c-.297.325-1.003.613-1.746.613-1.114 0-1.708-.865-1.708-2.054v-9.119h3.64v-3.315h-3.64v-4.758h-3.9v4.758h-2.972v3.315h2.972v10.056c0 2.883 1.597 4.469 4.606 4.469m14.572 0c5.757 0 9.248-4.145 9.248-9.155 0-4.973-3.491-9.118-9.248-9.118-5.683 0-9.212 4.145-9.212 9.118 0 5.01 3.529 9.155 9.212 9.155m0-3.352c-3.306 0-5.163-2.703-5.163-5.803 0-3.063 1.857-5.766 5.163-5.766 3.343 0 5.2 2.703 5.2 5.766 0 3.1-1.857 5.803-5.2 5.803"/></svg><svg width="134" height="70" y="494" fill="none" viewBox="-2 -2 134 70"><path fill="#fff" fill-rule="evenodd" d="M75.636 1.752C77.407.982 79.93.339 82.005.106c1.967-.215 5.438-.09 7.513.25 1.61.287 4.651 1.092 5.045 1.342.178.107.035 1.038-.662 4.275-.483 2.29-.913 4.186-.966 4.222-.036.036-.859-.197-1.843-.536-2.576-.877-4.758-1.217-7.245-1.11-2.916.108-4.508.788-5.33 2.255-.502.876-.502 1.538.017 2.432.501.877 1.807 1.79 4.955 3.489 5.367 2.862 7.621 4.883 8.802 7.853.358.876.393 1.341.411 3.596 0 2.397-.036 2.7-.519 4.078-1.61 4.705-5.867 7.943-12.182 9.249-3.184.662-8.765.536-12.612-.287-1.985-.429-4.472-1.216-4.472-1.43 0-.251 1.807-8.641 1.879-8.712.035-.036.733.214 1.556.554 6.476 2.773 13.524 2.415 15.134-.77 1.127-2.235-.09-3.845-4.705-6.189-5.832-2.987-8.48-5.563-9.302-9.034-1.288-5.51 2.075-11.234 8.157-13.881M.02 1.82c-.036-.036-.018-.322.035-.644L.18.604l9.499.054c9.248.054 9.516.072 10.321.43 1.038.482 1.968 1.395 2.433 2.414.233.501 1.163 5.08 2.54 12.415 1.199 6.386 2.237 11.771 2.308 11.95.09.215 1.843-4.043 5.563-13.47L38.301.622h5.527c3.077 0 5.492.072 5.456.161-.012.06-1.778 4.265-4.36 10.415l-.003.005-4.188 9.974-8.479 20.232-5.545-.036-5.564-.054-4.31-16.69c-2.362-9.195-4.473-17.048-4.688-17.477-.197-.43-.644-.984-.984-1.235C9.857 4.916 6.298 3.538 2.38 2.501 1.11 2.16.054 1.857.019 1.82zM53.794.747c0 .054-1.932 9.141-4.293 20.179s-4.294 20.178-4.294 20.286c0 .143 1.396.196 5.224.16l5.224-.053 4.24-19.767 3.36-15.74.005-.023.001-.007.98-4.588.143-.572H59.09c-2.916 0-5.295.054-5.295.125zm55.008 1.718c.572-.734 1.789-1.45 2.79-1.646.966-.197 10-.25 10-.054 0 .072 1.896 9.177 4.204 20.25C128.104 32.09 130 41.194 130 41.266c0 .09-2.165.144-4.83.144h-4.83l-.089-.412c-.161-.697-1.163-5.492-1.163-5.581 0-.054-3.041-.09-6.78-.09h-6.78l-1.073 2.988-1.074 3.005-5.474.054c-3.04.018-5.474-.036-5.474-.107 0-.43 15.993-38.282 16.369-38.801zm8.497 24.454-.125-.59c-.033-.14-.197-.931-.442-2.116l-.001-.001v-.001l-.001-.004-.002-.01c-.29-1.401-.694-3.35-1.128-5.418-1.342-6.368-1.503-6.923-1.7-6.44-.465 1.145-5.188 14.294-5.188 14.437 0 .071 1.932.143 4.294.143zM95.831 56.4c0 3.13-.053 6.44-.107 7.334L95.6 65.38h1.664v-1.502l.68.644c.965.912 1.413 1.11 2.718 1.11 1.414 0 2.362-.448 3.292-1.54.805-.93 1.181-2.146 1.181-3.828 0-3.023-1.646-4.973-4.204-4.955-1.163 0-2.219.412-2.863 1.127l-.357.394-.09-3.005-.09-3.024-.84-.053-.859-.054V56.4zm5.653.554c1.557.716 2.29 2.934 1.646 5.08-.662 2.2-3.327 2.916-4.776 1.289-.698-.805-.787-1.145-.698-3.167.036-1.413.125-1.753.483-2.272.43-.608 1.61-1.27 2.254-1.27.197 0 .68.161 1.091.34m-12.589-4.567.03-.047.823-1.27h.894c.483 0 .894.054.894.108 0 .053-.536.733-1.198 1.52-1.073 1.252-1.288 1.413-1.807 1.413-.727 0-.716-.017.364-1.724m-16.858-.836c-.34.036-.805.108-1.02.144l-.41.089v13.56l.41.107c.752.197 4.33.107 5.51-.143 3.775-.805 5.796-3.721 5.474-7.89-.232-3.094-1.985-5.08-5.08-5.723-1.109-.233-3.345-.305-4.884-.144m5.492 1.95c1.145.59 2.075 1.664 2.38 2.72.089.357.178 1.323.178 2.128 0 2.558-.93 4.258-2.808 5.17-.912.447-1.217.5-2.898.519h-1.896l-.054-5.492-.036-5.492.394-.09c.232-.035 1.162-.053 2.075-.035 1.413.053 1.807.125 2.665.572m31.398.25c-.913 0-1.378-.93-.931-1.806.143-.25.376-.34.895-.34s.751.09.894.34c.447.84-.018 1.807-.858 1.807zm5.653-.392-.859.232v1.95h-.805c-.436 0-.636 0-.727.1-.078.084-.078.24-.078.526s0 .442.078.527c.091.1.291.1.727.1h.805v3.166c0 1.753.089 3.506.197 3.881.393 1.414 1.753 2.13 3.381 1.754.554-.126.626-.197.68-.806l.053-.661h-.894c-.752 0-.948-.072-1.252-.466-.34-.447-.376-.715-.376-3.667v-3.202h2.504v-1.252h-2.486l-.054-1.216-.054-1.217zm-29.411 3.79c.519-.769 1.789-1.61 2.773-1.806.876-.18 2.11 0 2.916.393 1.234.626 2.11 2.344 2.11 4.097v.894h-7.03l.108.823c.232 2.075 2.182 3.113 4.811 2.54 1.324-.286 1.342-.268 1.432.555.071.59-.966.948-2.898.966-1.914.036-2.916-.322-3.918-1.395-1.574-1.7-1.717-4.938-.304-7.067m6.01 1.879c0-.77-.483-1.682-1.109-2.058-.715-.429-2.003-.465-2.665-.071-.59.376-1.198 1.27-1.342 2.004l-.107.572h5.224v-.447zm32.505-3.649c-2.272.537-3.632 2.237-3.847 4.723-.25 3.184 1.825 5.563 4.813 5.528 2.146-.018 3.917-1.235 4.561-3.167.412-1.252.376-3.273-.107-4.382-.447-1.02-1.431-2.057-2.326-2.415-.858-.358-2.272-.483-3.094-.287m2.093 1.485c1.699.698 2.432 3.506 1.466 5.581-1.109 2.38-3.792 2.487-5.044.197-.698-1.288-.698-3.077 0-4.364.805-1.467 2.164-2.004 3.578-1.414m-17.783 8.517v-9.84h1.788v9.84z" clip-rule="evenodd"/></svg><svg width="394" height="82" y="564" fill="none" viewBox="-2 -2 394 82"><path fill="#10357E" fill-rule="evenodd" d="M51.777 23.052 44.746 55.68h-8.502l7.032-32.628zm35.209 21.05 3.946-12.63 2.267 12.63zm9.866 11.578h7.738l-6.752-32.627h-7.151c-1.608 0-2.966.94-3.564 2.39L74.56 55.68h8.788l1.749-4.87H95.84zM75.056 44.54c.04-8.606-12.022-9.077-11.938-12.909.027-1.176 1.152-2.42 3.613-2.738 1.223-.155 4.585-.275 8.407 1.457l1.492-6.909C74.587 22.711 71.94 22 68.66 22c-8.42 0-14.354 4.428-14.4 10.773-.053 4.684 4.23 7.302 7.465 8.864 3.316 1.593 4.428 2.615 4.42 4.048-.025 2.182-2.654 3.147-5.101 3.18-4.285.071-6.775-1.14-8.755-2.049l-1.547 7.134c1.99.904 5.666 1.682 9.48 1.73 8.952 0 14.81-4.377 14.834-11.14M25.783 55.68h-8.854l-6.675-26.04c-.409-1.607-.762-2.189-1.993-2.87C6.252 25.668 2.928 24.637 0 23.994l.202-.94h14.245c1.818 0 3.45 1.213 3.864 3.327l3.526 18.884 8.71-22.212h8.804z" clip-rule="evenodd"/><path fill="#333" d="M139.743 51.068h3.9V27.03h-3.9v9.046c-1.449-1.838-3.529-2.847-5.757-2.847-4.643 0-7.986 3.532-7.986 9.154 0 5.73 3.38 9.119 7.986 9.119 2.303 0 4.383-1.082 5.757-2.811zm0-5.226c-.892 1.298-2.786 2.307-4.643 2.307-3.083 0-5.051-2.415-5.051-5.767 0-3.387 1.968-5.802 5.051-5.802 1.857 0 3.751 1.045 4.643 2.343v6.92zm17.496-14.812 6.129-5.19h-3.715l-5.2 5.19zm-9.657 11.316c0 5.515 4.011 9.155 9.397 9.155 2.86 0 5.497-.865 7.28-2.523l-1.783-2.487c-1.263 1.225-3.343 1.91-5.088 1.91-3.38 0-5.423-2.162-5.72-4.793h13.854v-.901c0-5.478-3.454-9.479-8.84-9.479-5.312 0-9.1 4.073-9.1 9.118m9.1-6.018c3.528 0 4.977 2.559 5.051 4.613H151.63c.186-2.127 1.709-4.613 5.052-4.613m12.689 14.74h3.9V48.69c1.375 1.73 3.417 2.81 5.757 2.81 4.569 0 7.949-3.387 7.949-9.118 0-5.622-3.343-9.154-7.949-9.154-2.265 0-4.345 1.01-5.757 2.847V27.03h-3.9v24.04zm3.9-5.226V38.96c.855-1.298 2.786-2.38 4.606-2.38 3.12 0 5.089 2.416 5.089 5.803s-1.969 5.767-5.089 5.767c-1.82 0-3.751-1.01-4.606-2.307zm19.614-14.308c1.337 0 2.414-1.045 2.414-2.342s-1.077-2.343-2.414-2.343c-1.3 0-2.414 1.045-2.414 2.343 0 1.297 1.114 2.342 2.414 2.342m-1.931 19.534h3.9V33.661h-3.9zm14.345.433c1.82 0 2.971-.469 3.677-1.118l-.929-2.847c-.297.325-1.003.613-1.746.613-1.114 0-1.708-.865-1.708-2.054v-9.119h3.64v-3.315h-3.64v-4.758h-3.9v4.758h-2.972v3.315h2.972v10.056c0 2.883 1.597 4.469 4.606 4.469m14.572 0c5.757 0 9.248-4.145 9.248-9.155 0-4.973-3.491-9.118-9.248-9.118-5.683 0-9.212 4.145-9.212 9.118 0 5.01 3.529 9.155 9.212 9.155m0-3.352c-3.306 0-5.163-2.703-5.163-5.803 0-3.063 1.857-5.766 5.163-5.766 3.343 0 5.2 2.703 5.2 5.766 0 3.1-1.857 5.803-5.2 5.803"/></svg><svg width="394" height="82" y="646" fill="none" viewBox="-2 -2 394 82"><path fill="#fff" d="M31.383 65.294c14.494 0 26.243-11.618 26.243-25.949s-11.75-25.949-26.243-25.949c-14.494 0-26.243 11.618-26.243 25.949s11.75 25.949 26.243 25.949"/><path fill="#000" fill-rule="evenodd" d="M194.04 22.753V34.9a33 33 0 0 1-.395 5.034l.598.31.855-.645a8.5 8.5 0 0 0 3.978.993c4.073 0 6.788-3.705 6.788-7.41 0-3.074-1.996-5.933-5.322-5.933-1.61.186-3.11.9-4.263 2.027V18.954c0-.229 0-.403-.23-.403a3 3 0 0 0-.625.309 18 18 0 0 1-2.946 1.221v.457c1.127.308 1.561.376 1.561 2.215zm2.293 7.356a4.42 4.42 0 0 1 2.716-1.342c2.226 0 4.575 2.537 4.575 5.597 0 2.524-1.29 5.49-4.345 5.49-1.587-.066-2.863-1.316-2.946-2.885v-6.873zm-96.39 10.068v-.738h-.489c-.801 0-1.426 0-1.426-.94v-10.86c0-.228 0-.39-.203-.39-.181 0-.359.046-.516.135-.109.094-1.71.617-3.055 1.02v.457c1.06.563 1.494.724 1.494 1.973v7.665c0 .94-.57.94-1.358.94h-.665v.738h3.122c1.032 0 2.05-.013 3.028-.013zm15.191-.738h-.515c-.801 0-1.426 0-1.426-.94v-7.29c0-2.2-.855-3.96-3.285-3.96a8.42 8.42 0 0 0-4.956 2.122v-1.84c0-.228-.081-.281-.163-.281q-1.852.766-3.774 1.342v.537c1.358.537 1.657.819 1.657 1.866v7.49c0 .94-.57.94-1.358.94h-.516v.739h6.122v-.739h-.515c-.801 0-1.44 0-1.44-.94v-8.363a7.66 7.66 0 0 1 3.327-1.342c.69-.109 1.393.1 1.907.57.513.468.781 1.144.727 1.833v7.316c0 .94-.57.94-1.358.94h-.516v.738h6.123v-.738zm-34.09.738c10.129 0 11.785-7.034 11.785-9.84 0-5.007-4.073-9.893-11.431-9.893h-8.309v.725c1.29 0 2.634-.135 2.634 2.403V37.29c-.082 1.92-.923 1.973-2.634 2.148v.738h3.829c1.29 0 2.593-.013 4.045-.013zm-2.551-18.713c.516 0 1.06-.107 2.227-.107 5.525 0 8.947 3.812 8.947 9.101 0 4.215-2.023 8.82-8.146 8.82-1.358 0-2.973-.255-2.973-2.43V21.45zm99.975 18.713v-.738h-.57c-.801 0-1.425 0-1.425-.94V18.954c0-.229 0-.403-.231-.403q-.331.118-.625.309c-.943.492-1.93.901-2.946 1.221v.457c1.086.308 1.52.362 1.52 2.201v15.747c0 .94-.57.94-1.357.94h-.543v.738h6.109zm-44.801 0v-.738h-1.656c-.801 0-1.358 0-1.358-.94v-6.645a2.4 2.4 0 0 1 2.09-2.35c1.005 0 1.005.686 1.888.686.38 0 .742-.155 1-.43.258-.276.388-.646.357-1.02a1.53 1.53 0 0 0-.495-1.09 1.57 1.57 0 0 0-1.134-.414c-1.737 0-2.946 1.812-3.652 2.913v-2.537c0-.282-.081-.362-.258-.362-.176 0-1.357.738-3.489 1.61v.417c.435.228 1.48.402 1.48 1.275v7.947c0 .94-.57.94-1.358.94h-.773v.738h3.407c1.181 0 2.322-.04 3.897-.013zm46.498-10.175v7.235c-.09.87.203 1.736.803 2.378s1.45.998 2.333.978c2.037 0 3.354-.993 5.064-2.376V40.5l.136.08a30 30 0 0 1 4.073-.872v-.59h-1.14c-.49 0-.802 0-.802-.537V28.15c0-.31 0-.511-.23-.511-.231 0-1.887.228-4.467.39v.51c1.032.281 2.403.59 2.403 1.154v7.611a6.44 6.44 0 0 1-3.462 1.719c-2.484 0-2.484-2.43-2.484-3.276v-7.29c0-.617 0-.818-.313-.818-.312 0-2.715.161-3.692.201v.537c1.615.161 1.724.873 1.724 1.611zm-39.29 9.692c-1.914-.077-3.467-1.56-3.61-3.45l-.516.147.312 3.249a7.6 7.6 0 0 0 3.489.953c3.408 0 4.915-1.987 4.915-3.84 0-4.442-6.64-3.422-6.64-6.711a1.98 1.98 0 0 1 .708-1.407c.421-.353.97-.519 1.52-.46a2.95 2.95 0 0 1 2.163.748c.589.53.935 1.272.959 2.059h.651l-.203-2.887a7.6 7.6 0 0 0-3.258-.818c-3.15 0-4.44 2.027-4.44 3.624 0 4.55 6.232 3.477 6.232 6.82a2 2 0 0 1-1.476 1.909 2 2 0 0 1-.859.05l.054.014zM96.82 22.9a1.417 1.417 0 0 0 1.358-1.41 1.35 1.35 0 0 0-1.358-1.342c-.768 0-1.391.616-1.391 1.376s.623 1.376 1.391 1.376m73.8 16.203.652-4.135-.652-.16c-.43 2.813-2.878 4.891-5.756 4.886-4.399 0-8.526-4.095-8.526-9.813 0-6.78 4.779-8.954 8.064-8.954s5.58 1.342 6.11 4.631h.72l-.286-4.027a20.8 20.8 0 0 0-6.788-1.503c-5.607 0-10.861 4.161-10.861 9.96 0 6.363 4.222 10.632 10.86 10.632 2.24-.059 4.44-.58 6.463-1.53zm-50.232 1.504a6.72 6.72 0 0 0 5.295-3.195l-.394-.39a5.46 5.46 0 0 1-3.855 1.893c-2.281 0-4.073-2.201-4.195-4.886a6.6 6.6 0 0 1 0-1.638h8.037l.258-.174q.018-.255 0-.51a4.46 4.46 0 0 0-1.452-3.245 4.56 4.56 0 0 0-3.381-1.185c-1.996 0-5.77 1.637-5.77 7.181.013 1.772.923 6.135 5.471 6.135zm.19-12.444a2.44 2.44 0 0 1 1.831.753c.474.497.712 1.17.654 1.85a.63.63 0 0 1-.484.719.64.64 0 0 1-.317-.007h-4.983c.38-2.054 1.575-3.329 3.327-3.329zm-31.7 18.176h-2.212v.59h.407c.36-.022.712.115.961.374a1.2 1.2 0 0 1 .328.969v5.651l-6.788-7.611h-3.231v.59h.272c.75 0 1.357.601 1.357 1.343v6.484c0 1.221-.312 1.879-1.357 1.892h-.286v.591h4.196v-.59h-.34c-1.167 0-1.358-.39-1.358-1.732v-6.162l7.902 8.699h.719v-.08a10 10 0 0 1-.095-1.544v-7.008c0-1.812.68-1.866 1.358-1.893h.299v-.644h-.068c-.76 0-1.399.067-2.037.067zm-13.644 0h-2.376v.59h.285c.57 0 1.086 0 1.086.82v8.054c0 .751-.515.805-1.086.818h-.285v.591h4.874v-.59h-.299c-.57 0-1.086 0-1.086-.82v-8.054c0-.752.516-.805 1.086-.819h.286v-.67h-.014c-.733 0-1.63.066-2.444.066zm130.901 8.054a3.4 3.4 0 0 1-.461 1.087 2.2 2.2 0 0 1-1.44.806q-.59.03-1.18 0h-.856a.8.8 0 0 1-.61-.207.8.8 0 0 1-.259-.585V47.56c0-.778.394-.752.992-.765h.448v-.537h-4.82v.59h.285c.57 0 1.1 0 1.1.806v7.907a.86.86 0 0 1-.288.775.89.89 0 0 1-.812.191h-.285v.591h8.146c.19-.872.407-1.732.57-2.618v-.08h-.584zm-9.883 1.584c-.204-.456-.394-1.02-.57-1.557l-2.865-8.055c0-.12-.095-.268-.136-.389a.175.175 0 0 0-.176-.094.4.4 0 0 0-.15 0q-.647.39-1.357.658a19 19 0 0 1-.61 1.946l-2.485 7.062c-.18.587-.738.979-1.358.953h-.15v.604h3.722V56.5h-.245c-.516 0-1.1-.094-1.1-.47q.113-.608.34-1.182l.475-1.557h3.435l.584 1.745q.221.526.312 1.088c0 .295-.543.376-.896.376h-.19v.604h4.548V56.5h-.163a.92.92 0 0 1-.937-.537zm-6.354-3.624 1.358-4.122 1.358 4.122zm-3.326-5.477v-.618h-4.154v.59h.407c.362-.026.717.109.967.37.25.26.369.617.323.973v5.652l-6.788-7.612h-3.231v.59h.271c.75 0 1.358.602 1.358 1.343v6.484c0 1.222-.299 1.88-1.358 1.88h-.285v.604h4.195v-.605h-.38c-1.168 0-1.358-.389-1.358-1.731v-6.162l7.902 8.699h.719v-.08a10.5 10.5 0 0 1-.081-1.544V48.7c0-1.812.679-1.866 1.357-1.893h.3zm20.364 1.087-.271-.376a.51.51 0 0 0 .394-.497.48.48 0 0 0-.182-.337.48.48 0 0 0-.375-.092h-.842v.08c.217 0 .231 0 .231.215v1.195c0 .12 0 .12-.244.148v.107h.76v-.08c-.204 0-.23 0-.23-.135v-.537h.23c.127.292.328.546.584.739h.326a1.8 1.8 0 0 1-.367-.457zm-.529-.416h-.19v-.765h.19a.31.31 0 0 1 .326.349.33.33 0 0 1-.187.355.3.3 0 0 1-.139.034zm-38.746-1.49a5.77 5.77 0 0 0-4.13 1.662 5.65 5.65 0 0 0-1.681 4.083 5.5 5.5 0 0 0 1.713 4.068 5.62 5.62 0 0 0 4.18 1.53 5.82 5.82 0 0 0 4.284-1.7 5.68 5.68 0 0 0 1.661-4.26c0-3.356-2.674-5.41-6.014-5.41zm.23 10.524c-2.457 0-3.72-2.577-3.733-5.37 0-2.053.8-4.39 3.462-4.39 2.66 0 3.747 2.686 3.747 4.9 0 2.216-.502 4.833-3.462 4.833zm38.584-10.659c-.907 0-1.643.728-1.643 1.625s.736 1.624 1.643 1.624 1.643-.727 1.643-1.624a1.6 1.6 0 0 0-.459-1.17 1.62 1.62 0 0 0-1.17-.481zm0 2.94a1.35 1.35 0 0 1-1.358-1.342 1.35 1.35 0 0 1 .841-1.242c.164-.067.34-.101.517-.1.75 0 1.357.6 1.357 1.342a1.35 1.35 0 0 1-1.344 1.315zM135.81 46.85v-.59h-4.1v.59h.407c.362-.027.717.108.967.368s.369.618.323.974v5.652l-6.788-7.612h-3.286v.59h.272c.75 0 1.358.602 1.358 1.343v6.47c0 1.236-.313 1.88-1.358 1.893h-.285v.591h4.195v-.59h-.326c-1.167 0-1.358-.39-1.358-1.732v-6.162l7.902 8.699h.719v-.08a10 10 0 0 1-.095-1.544V48.7c0-1.812.68-1.866 1.358-1.893h.095zm-14.513 8.792-2.607-3.866a2.96 2.96 0 0 0 2.132-2.684c0-2.229-1.82-2.766-3.774-2.766h-4.928v.59h.353c.488 0 1.018 0 1.031 1.102v7.812a.87.87 0 0 1-.348.605.9.9 0 0 1-.683.16h-.353v.591h5.036v-.59h-.353c-.72 0-1.194 0-1.208-1.168v-3.222h.923a44 44 0 0 0 3.218 4.967h3.054v-.59a1.67 1.67 0 0 1-1.48-.94zm-5.037-4.188h-.679v-4.39q.408-.027.815 0c.6-.044 1.19.172 1.614.592.426.42.644 1.004.599 1.597.043.31.012.626-.091.92a2 2 0 0 1-.504.777 2.01 2.01 0 0 1-1.74.518zm-14.62-5.733v.067c0 .403-.34.403-.774.416H92.72c-.394 0-.679 0-.787-.402h-.489v.067q.004.675-.095 1.342c0 .443-.122.873-.19 1.343v.08h.597c.258-1.14.231-1.342 1.358-1.342h2.484v8.148c0 1.195-.366 1.208-1.222 1.222h-.366v.59h5.172v-.59h-.366c-.747 0-1.208-.094-1.222-1.262v-8.055h2.484c.344.02.662.188.87.459.21.27.288.618.217.951v.094l.706-.443v-1.249c0-.416.108-.832.162-1.235l-.434-.067h-.068zm9.3 8.659c-.462 1.731-1.222 1.825-3.096 1.825-1.018 0-1.833 0-1.833-.94V51.75h1.806c1.032 0 1.045.523 1.14 1.463v.067l.543-.108v-3.557h-.597c-.109.832-.258 1.342-1.168 1.342h-1.792v-3.892h2.105a1.55 1.55 0 0 1 1.379.387c.367.346.536.85.453 1.344v.08l.544-.147v-2.47h-7.915v.59h.285c.556 0 1.072 0 1.086.82v8.054c0 .752-.516.805-1.086.819h-.285v.59h8.321c.136-.818.326-1.624.53-2.443l-.503-.134.081-.174zm48.086-8.055h-2.308v.59h.285c.57 0 1.073 0 1.086.82v8.054c0 .752-.515.806-1.086.819h-.285v.59h4.752v-.59h-.285c-.57 0-1.086 0-1.086-.819v-8.054c0-.752.516-.806 1.086-.82h.285v-.657c-.747 0-1.67.067-2.444.067m-13.576 9.639c-.204-.457-.394-1.02-.57-1.558l-2.865-8.054-.136-.39a.19.19 0 0 0-.162-.093.4.4 0 0 0-.15 0 8.5 8.5 0 0 1-1.357.658q-.256.991-.625 1.946l-2.498 7.061a1.36 1.36 0 0 1-1.29.953h-.163v.604h3.68v-.604h-.231c-.516 0-1.1-.094-1.1-.47a6.4 6.4 0 0 1 .34-1.181l.488-1.557h3.435l.597 1.745c.142.35.243.715.3 1.087 0 .296-.53.376-.897.376h-.244v.604h4.67v-.604h-.163a.91.91 0 0 1-1.018-.523zm-6.354-3.625 1.358-4.121 1.358 4.121zm16.563-6.564v.067c0 .403-.34.403-.774.416h-8.145c-.394 0-.68 0-.788-.403h-.488v.067q.003.675-.095 1.343c0 .443-.123.872-.19 1.342v.08h.597c.258-1.14.23-1.342 1.357-1.342h2.485v8.149c0 1.195-.367 1.208-1.222 1.221h-.367v.591h5.173v-.59h-.367c-.746 0-1.208-.095-1.221-1.262v-8.055h2.484c.344.02.662.187.87.458.21.271.288.619.216.952v.094l.557-.202v-1.248c0-.416.108-.832.176-1.235l-.448-.067h-.068z" clip-rule="evenodd"/><path fill="#004A97" fill-rule="evenodd" d="M31.424 65.763C16.42 65.868 4.157 53.953 4 39.117 4 23.088 16.381 12 31.424 12h7.046c14.866 0 28.428 11.075 28.428 27.117 0 14.659-13.576 26.646-28.428 26.646zm0-51.535c-13.744 0-24.885 11.017-24.885 24.607S17.68 63.44 31.424 63.44s24.885-11.017 24.885-24.606c0-13.57-11.108-24.577-24.83-24.607h-.055zm-5.58 39.158V24.243c-6.122 2.296-10.17 8.097-10.17 14.571s4.048 12.275 10.17 14.572m21.423-14.551c.006-6.473-4.029-12.277-10.141-14.592v29.116c6.09-2.306 10.118-8.077 10.141-14.524" clip-rule="evenodd"/></svg><svg width="394" height="82" y="728" fill="none" viewBox="-2 -2 394 82"><path fill="#1A1919" fill-rule="evenodd" d="M0 72.473h107.416V6H0z" clip-rule="evenodd"/><path fill="#FFFFFE" fill-rule="evenodd" d="M34.058 51.404a11 11 0 0 1-7.894 3.179c-2.025-.034-4-.63-5.706-1.72l-4.108 6.569a18.6 18.6 0 0 0 9.704 2.897 18.65 18.65 0 0 0 13.394-5.364l-5.39-5.56zm-18.703-6.757a10 10 0 0 1-.067-1.334c.098-6.134 5.123-11.023 11.224-10.925a10.98 10.98 0 0 1 8.262 3.937zm11.267-20.015c-10.354-.159-18.887 8.15-19.046 18.557a18.8 18.8 0 0 0 3.038 10.58L44.61 39.177c-1.915-8.222-9.198-14.405-17.989-14.546zm28.65-8.493v36.393l6.288 2.62-2.972 7.177-6.221-2.598c-1.4-.608-2.345-1.535-3.066-2.583-.688-1.07-1.2-2.537-1.2-4.515V16.139zm22.671 16.818a11.057 11.057 0 0 1 14.324 8.309l7.576-1.55c-1.74-8.608-9.318-15.088-18.4-15.088-2.081 0-4.08.341-5.945.968zm-8.938 24.64 5.121-5.809A11.1 11.1 0 0 1 70.4 43.48c0-3.307 1.44-6.273 3.721-8.304l-5.118-5.812a18.84 18.84 0 0 0-6.331 14.113A18.84 18.84 0 0 0 69.005 57.6zm23.262-11.89a11.06 11.06 0 0 1-10.825 8.864c-1.191 0-2.374-.192-3.503-.571l-2.453 7.36c1.92.645 3.931.973 5.956.972 9.076 0 16.652-6.472 18.398-15.068l-7.573-1.559v.003z" clip-rule="evenodd"/></svg><svg width="394" height="82" y="810" fill="none" viewBox="-2 -2 394 82"><path fill="#B82720" fill-rule="evenodd" d="M42.23 6.296H26.285c-7.045.326-12.803 3.108-14.464 8.84-.867 2.993-1.344 6.275-2.023 9.377C6.353 40.276 3.297 56.477 0 71.923h124.106c9.596 0 16.185-1.986 17.964-9.453.827-3.469 1.618-7.4 2.415-11.205 3.086-14.855 6.172-29.706 9.334-44.987H42.229z" clip-rule="evenodd"/><path fill="#fff" fill-rule="evenodd" d="M40.98 29.62c.666-.449 1.524-2.5.543-3.352-.302-.27-.83-.35-1.555-.228-.52.04-.998.288-1.323.686-.423.566-.81 2.264-.157 2.898.652.633 2.071.284 2.491-.003zm-9.482-3.352c-.478 3.04-1.015 6.017-1.556 8.994-3.463.035-7.002.169-10.342-.077.631-2.912 1.084-6.002 1.712-8.917h-3.735c-1.338 7.431-2.551 14.978-4.043 22.256h3.81c.605-3.732 1.157-7.506 1.945-11.051 3.25-.08 7.145-.216 10.267.077-.655 3.7-1.425 7.25-2.026 10.974h3.81c1.223-7.541 2.516-15.017 4.044-22.256zm53.89 6.398c-2.965-1.183-5.296.811-6.377 2.664.245-.826.347-1.793.544-2.664H76.61c-.721 5.49-1.787 10.655-2.799 15.855h3.346c.468-3.09.67-7.257 1.712-10.214.83-2.367 3.02-4.374 6.145-3.276.03-.87.284-1.536.374-2.365m1.867 12.135c-.302-.781-.39-2.072-.302-3.049.172-2.202.99-4.883 2.255-6.096 1.746-1.676 5.188-1.397 7.933-.46.084-.908.272-1.716.39-2.592-4.503-.722-8.779-.272-11.043 2.072-2.22 2.282-3.672 7.523-2.646 10.823 1.208 3.848 6.598 4.07 10.965 2.593.193-.775.302-1.64.465-2.439-2.392 1.19-6.955 1.812-8.017-.852m37.56-12.043c-2.956-1.447-5.417.983-6.377 2.439.275-.749.302-1.75.544-2.516h-2.957a241 241 0 0 1-2.877 15.855h3.42c.022-2.101.445-3.655.78-5.718.716-4.401 1.763-9.225 7-7.775.178-.755.25-1.598.47-2.297zm-87.266-.077c-.09 0-.085.122-.079.228-.736 5.401-1.733 10.548-2.799 15.627h3.343c.803-5.437 1.724-10.761 2.878-15.855zm29.399-.31c-2.416.183-4.46.864-5.91 2.367-1.781 1.838-3.222 5.902-2.799 9.604.604 5.28 7.31 5.09 12.683 3.812.09-.926.32-1.72.468-2.592-2.21.81-6.04 1.941-8.322.532-1.716-1.062-1.728-3.756-1.166-6.097 3.605-.112 7.353-.091 10.964 0 .23-1.66.885-3.468.302-5.108-.746-2.172-3.454-2.732-6.22-2.519zm3.188 5.791h-7.85c.355-2.146 2.214-3.745 4.432-3.812 2.416-.094 4.155.865 3.427 3.81zm-15.853-5.496c-2.829-1.041-6.28.202-7.775 1.385 0 .054-.036.06-.079.063l.079-.063c.024-.509.208-.864.233-1.373h-2.878c-1.208 7.82-2.621 15.42-4.122 22.943h3.352c.483-2.93.803-6.02 1.476-8.766.764 2.886 5.738 2.335 7.851 1.22 4.337-2.31 7.685-13.26 1.863-15.409m-2.645 12.88c-1.787 1.86-6.187 1.83-6.531-1.296-.151-1.358.365-2.785.622-4.19s.444-2.791.7-4.04c1.764-2.11 6.946-2.368 7.465 1.142.456 3.051-.773 6.852-2.256 8.39zm85.621-19.74a73 73 0 0 1-1.165 7.103c-8.202-2.545-13.232 3.371-13.145 10.673.018 1.411.266 2.811 1.166 3.812 1.552 1.722 6 2.133 8.243.686.442-.324.835-.71 1.166-1.142.217-.267.559-.962.622-.764a17 17 0 0 0-.302 2.368h3.02c.586-8.219 2.391-15.24 3.732-22.715h-3.337zm-7.464 20.96c-2.253.047-3.37-1.317-3.421-3.581-.091-3.966 1.685-8.37 5.287-8.767 1.679-.183 2.893.199 4.122.61-1.13 4.446-.722 11.632-5.988 11.744zm-28.853-14.1c-.163.906-.416 1.726-.622 2.593 1.975-.485 8.117-1.971 8.709.61.196.858-.142 1.775-.39 2.438-5.556-.515-10.085.388-11.275 4.268-.797 2.599.09 5.156 1.788 5.87 3.273 1.372 7.247-.202 8.633-2.368-.18.8-.258 1.62-.233 2.438h2.878c.03-2.702.432-4.886.855-7.316.362-2.072 1.041-4.12.933-5.946-.245-4.176-7.317-2.696-11.276-2.587m5.436 12.807c-1.724 1.654-6.562 2.122-6.067-1.83.42-3.282 4.08-3.977 8.005-3.504-.28 1.797-.604 4.07-1.93 5.337z" clip-rule="evenodd"/></svg><svg width="394" height="82" y="892" fill="none" viewBox="-2 -2 394 82"><path fill="#F79E1B" fill-rule="evenodd" d="M108.25 39.028c0 18.241-14.988 33.028-33.476 33.028S41.298 57.27 41.298 39.028C41.298 20.788 56.286 6 74.774 6s33.476 14.787 33.476 33.028" clip-rule="evenodd"/><path fill="#EB001B" fill-rule="evenodd" d="M66.952 39.028c0 18.241-14.988 33.028-33.476 33.028S0 57.27 0 39.028C0 20.788 14.988 6 33.476 6s33.476 14.787 33.476 33.028" clip-rule="evenodd"/><path fill="#FF5F00" fill-rule="evenodd" d="M54.125 13.028C46.315 19.075 41.3 28.47 41.3 39.025s5.014 19.958 12.825 26.004c7.81-6.046 12.825-15.45 12.825-26.004s-5.014-19.95-12.825-25.997" clip-rule="evenodd"/></svg><svg width="394" height="82" y="974" fill="none" viewBox="-2 -2 394 82"><path fill="#F79E1B" fill-rule="evenodd" d="M108.25 39.028c0 18.241-14.988 33.028-33.476 33.028S41.298 57.27 41.298 39.028C41.298 20.788 56.286 6 74.774 6s33.476 14.787 33.476 33.028" clip-rule="evenodd"/><path fill="#EB001B" fill-rule="evenodd" d="M66.952 39.028c0 18.241-14.988 33.028-33.476 33.028S0 57.27 0 39.028C0 20.788 14.988 6 33.476 6s33.476 14.787 33.476 33.028" clip-rule="evenodd"/><path fill="#FF5F00" fill-rule="evenodd" d="M54.125 13.028C46.315 19.075 41.3 28.47 41.3 39.025s5.014 19.958 12.825 26.004c7.81-6.046 12.825-15.45 12.825-26.004s-5.014-19.95-12.825-25.997" clip-rule="evenodd"/></svg><svg width="394" height="82" y="1056" fill="none" viewBox="-2 -2 394 82"><path fill="#fff" fill-rule="evenodd" d="m43.55 8 .992.008c23.446.355 42.3 13.244 42.354 29.013v.425c-.002.505-.022.81.02 1.29l-.009.699c-.433 16.69-17.119 30.201-43.369 30.259l-1.08-.003C16.642 69.418.082 55.825.022 39.004L0 37.286l.008-.666C.491 20.843 19.691 8.07 43.353 8zm0 1.514h-.19C20.837 9.576 2.546 21.66 2.06 36.636l-.01.663c.042 15.055 18.072 27.251 40.474 27.537l.99.006c22.527-.066 40.819-12.15 41.304-27.123l.008-.663C84.786 22.04 66.851 9.871 44.536 9.52z" clip-rule="evenodd"/><path fill="#fff" d="M23.845 41.136c1.2-.013 2.263.87 2.536 2.051l.052.3.098.737.398-.603c.041-.082.944-1.473 2.64-1.705l.436-.032c.24-.003.5.013.753.065l.374.104c1.456.447 1.772 1.732 1.854 2.394l.017.153c.04.305.204.355.283.363h.036c.09 0 .16-.041.223-.082l.09-.06a2.7 2.7 0 0 1 1.569-.824l.354-.027a3.1 3.1 0 0 1 1.066.202l.374.15c2.365 1.017 1.454 3.992 1.361 4.314l-.008.028c-.188.474-.213.711-.101.856l.065.063.093.046.09-.003c.068 0 .186-.027.333-.081l.158-.063c.27-.107.614-.213.976-.265l.369-.027c1.77.022 3.199 1.377 3.387 3.098l.022.35c-.022 1.677-1.35 3.13-3.071 3.327l-.35.019c-1.723.021-3.108-1.252-3.37-2.962l-.036-.347c0-.114-.005-.452-.212-.559l-.153-.032c-.09 0-.18.043-.27.111l-.131.123c-.344.32-.753.674-1.342.745l-.31.01a2.2 2.2 0 0 1-.813-.144l-.27-.117c-1.811-.747-1.948-1.958-1.89-2.564l.016-.12a.5.5 0 0 0 .014-.275l-.063-.137-.137-.092h-.136a.45.45 0 0 0-.19.068l-.12.076c-.426.336-.857.524-1.31.592l-.346.027a2.3 2.3 0 0 1-.595-.068l-.303-.104c-2.38-.965-2.348-3.18-2.23-4.052l.021-.148c0-.1 0-.204-.04-.27l-.055-.046-.18-.136-.177.185a2.46 2.46 0 0 1-1.495.734l-.335.024h-.033c-1.424 0-2.588-1.216-2.605-2.675a2.68 2.68 0 0 1 2.316-2.673l.302-.022zM9.982 20.382c.087-.068.19-.063.3-.027l.163.073-.201-.046c1.352.638 2.724 1.115 4.069 1.5 4.14 1.448 8.285 2.506 10.082 2.692l.29.024.875.057.878.058c1.124-.014 2.242-.281 3.336-.592l.654-.191c.567-.18 1.19-.36 1.841-.502l.666-.128c-.15.155-.317.31-.478.48l-.234.264-3.633 4.04c-.24.25-.802.951-.608 1.789l.093.283q.205.463.64.846l.314.245c.753.51 2.056.878 3.333.98l.545.027c.358-.006.718-.03 1.064-.077l.502-.082c1.371-.308 2.806-1.431 4.347-2.64l.518-.403c1.181-.996 2.864-2.215 4.26-2.774l.51-.18a9 9 0 0 1 .906-.169l.436-.033c.093 0 .164 0 .237.011l.126.027c.9.118 1.761.423 3.171 1.427l.442.322c2.918 2.247 15.71 13.603 16.44 14.225l.03.027s.698.622.786 1.653l.002.357c-.03.592-.294 1.119-.79 1.55l-.265.21q-.694.449-1.396.545l-.35.027c-.785.008-1.336-.335-1.491-.422l-.041-.02-.11-.103-.286-.265c-1.096-1.014-4.18-3.856-5.68-5.138l-.235-.199c-.205-.17-.41-.31-.592-.39l-.177-.057a.42.42 0 0 0-.254.076l-.1.11c-.233.28-.028.654.234.954l.136.144 5.318 5.441s.538.502.696 1.192l.04.267c.05.805-.28 1.473-.962 2.032l-.314.235c-.518.351-1.041.572-1.565.619l-.314.002a2.66 2.66 0 0 1-1.459-.439l-.073-.046-.772-.772-1.058-1.053a83 83 0 0 0-2.441-2.345l-.41-.363c-.204-.169-.408-.313-.61-.373l-.202-.028a.4.4 0 0 0-.224.063l-.09.08c-.114.116-.19.305-.013.61l.111.164c.104.136.208.25.251.297l.025.025 3.914 4.445c.043.044.695.81.259 1.653l-.148.229-.13.185-.178.188-.177.186c-.584.49-1.345.594-1.737.616l-.145.003h-.267l-.27-.038c-.325-.068-.535-.14-.674-.238l-.093-.076-.226-.226c-.518-.532-1.972-2.013-3.305-3.164l-.328-.278c-.174-.136-.368-.297-.572-.368l-.2-.036a.55.55 0 0 0-.256.066l-.1.079c-.273.324.043.78.277 1.012l.093.081 3.327 3.723c0 .033-.021.063-.06.123l-.073.11c-.117.163-.45.476-1.337.684l-.362.073-.224.025-.226.027c-1.1.011-2.24-.464-2.962-.826l-.284-.145a5.4 5.4 0 0 0 .456-1.72l.016-.443c.011-2.667-2.01-4.849-4.57-5.023l-.388-.011-.177.003c.068-1.206-.071-3.377-2.098-4.528l-.43-.212a5.4 5.4 0 0 0-1.664-.448l-.41-.032a4.4 4.4 0 0 0-1.153.169l-.368.125c-.445-.878-1.124-1.54-2.013-1.93l-.393-.15a4.8 4.8 0 0 0-1.336-.287l-.42-.014a4.8 4.8 0 0 0-2.405.666l-.369.24c-.69-.887-1.729-1.446-2.836-1.582l-.417-.027c-.982.01-1.89.34-2.64.981l-.311.295c-1.012-.79-4.882-3.276-15.177-5.733l-.928-.215a55 55 0 0 1-2.08-.584l-.355-.106c.927-5.065 3.074-9.95 7.69-13.74zm35.438-.955c3.627-.005 7.27 1.566 7.974 1.877l.088.038c3.273 1.642 6.687 2.509 10.069 2.645l.922.017c3.542 0 7.186-.854 11.002-2.523l.995-.456h.02l1.125-.507c.628 1.066.17.641.628 1.066 3.627 3.382 5.735 7.582 6.586 11.919.066.335-.054.452 0 .788l-1.124.264.879-.201c-8.921 2.02-15.772 5.001-17.796 5.923l-.19.087c-1.607-1.42-4.05-3.586-6.584-5.803l-1.383-1.214c-3.232-2.823-6.382-5.536-7.89-6.73l-.3-.233c-1.287-1.003-2.253-1.576-3.055-1.879l-.292-.098a5 5 0 0 0-1.23-.245l-.39-.011a6.7 6.7 0 0 0-1.53.196l-.529.153c-1.29.41-2.571 1.317-3.831 2.315l-1.075.868-.087.049c-1.32 1.09-2.717 2.217-3.83 2.61l-.362.103c-.327.066-.676.131-1.034.17l-.534.032c-1.16.017-2.212-.294-2.755-.75l-.177-.177c-.074-.07-.06-.172.04-.33l.09-.128.044-.05 3.592-3.99.35-.36.698-.708c2.35-2.343 4.922-4.375 9.81-4.691l.752-.036z"/></svg><svg width="394" height="82" y="1138" fill="none" viewBox="-2 -2 394 82"><path fill="#2D3277" fill-rule="evenodd" d="m160.489 22.595.006 3.88c-.403-.633-.905-1.162-1.57-1.522-.632-.361-1.362-.554-2.189-.546-1.788-.013-3.203.67-4.282 2.018-1.077 1.35-1.586 3.294-1.596 5.636q-.018 3.06 1.639 4.999c1.074 1.292 3.228 1.872 5.115 1.85 6.584-.003 6.526-5.72 6.526-5.72l-.036-13.141s-.163-.018-.42-.018c-.952 0-3.191.246-3.193 2.564m-5.235 12.227c-.504-.763-.748-1.863-.759-3.134-.013-1.17.24-2.176.729-2.95.489-.81 1.247-1.184 2.303-1.195a2.63 2.63 0 0 1 1.794.65c.835.725 1.278 2.024 1.262 3.697.046 1.203-.242 2.176-.762 2.952-.524.774-1.281 1.15-2.307 1.126h-.04c-.973 0-1.722-.39-2.22-1.146m11.66-8.35c-1.143 1.45-1.722 3.161-1.734 5.17-.012 2.005.569 3.738 1.742 5.164 1.138 1.425 2.899 2.141 5.216 2.151q3.523.013 5.238-2.162c1.142-1.45 1.722-3.162 1.734-5.17-.022-2.006-.6-3.738-1.742-5.163-1.138-1.461-2.9-2.178-5.216-2.185h-.041c-2.329 0-4.061.753-5.197 2.195m2.83 8.33c-.57-.73-.846-1.797-.861-3.2-.013-1.372.273-2.445.829-3.187.554-.741 1.377-1.118 2.403-1.129 1.059-.011 1.825.381 2.393 1.111.57.73.846 1.798.827 3.168.015 1.405-.238 2.478-.794 3.22-.554.74-1.343 1.118-2.404 1.129h-.039c-1.007 0-1.825-.39-2.354-1.113zm-25.75-10.426c-2.315-.008-3.93.61-4.878 1.824-.587.777-.94 1.783-.995 2.987l3.443-.002c.092-.537.254-.94.516-1.276.358-.44.952-.645 1.813-.623.76-.007 1.325.121 1.724.317.399.229.601.595.606 1.163q.009.702-.783 1.013c-.296.136-.759.241-1.419.316l-1.223.146c-1.388.183-2.444.46-3.166.903-1.317.75-1.966 1.994-1.948 3.7.014 1.304.42 2.303 1.222 3.03.802.725 1.831 1.017 3.088 1.07 7.779.35 7.7-4.163 7.756-5.1l-.02-5.181c.049-1.672-.558-2.804-1.722-3.394-1.137-.575-2.429-.893-3.907-.893zm-2.231 11.495c-.333-.265-.504-.732-.509-1.333-.007-.703.286-1.208.845-1.547.328-.204.888-.378 1.65-.487l.823-.142c.397-.07.728-.175.957-.244a6 6 0 0 0 .692-.342l-.019 1.339c-.021 1.203-.375 2.043-1.034 2.485-.657.44-1.383.682-2.142.691h-.025c-.485 0-.877-.13-1.238-.42M84.472 24.378c-3.507.005-5.765 2.603-5.762 6.047l.018 8.26 3.277-.003-.02-8.325c.017-1.505 1.033-2.554 2.488-2.569 2.15.011 2.369 1.814 2.376 2.583l.02 8.327 3.275-.003-.02-8.324c.018-1.505 1.067-2.555 2.489-2.569 2.15.01 2.4 1.814 2.41 2.582l.017 8.326h3.276l-.051-8.295c-.004-3.542-2.114-6.03-5.687-6.024-1.654-.016-3.07.735-4.05 1.916-.896-1.18-2.303-1.93-3.997-1.93zm40.717 2.005c-1.208 1.318-1.787 3.163-1.795 5.504-.013 2.072.534 3.806 1.641 5.098q1.658 1.989 5.082 1.952 3.474.013 5.236-2.363c.751-.98 1.137-2.018 1.226-3.09l-3.838.042c-.093.736-.284 1.307-.677 1.779-.359.44-.987.679-1.879.688-1.224.014-2.09-.578-2.532-1.711-.237-.6-.377-1.434-.355-2.437-.011-1.07.111-1.907.371-2.546.45-1.207 1.336-1.82 2.594-1.833.894-.01 1.558.285 1.96.816.303.397.473.864.545 1.398l3.838-.007q-.33-2.956-2.027-4.092c-1.166-.757-2.625-1.142-4.413-1.156h-.052c-2.093 0-3.723.685-4.925 1.958m-2.867-1.943c-7.906.019-7.404 7.07-7.404 7.07l.007 7.19 3.575-.006-.004-6.722c-.011-1.103.147-1.908.405-2.445.486-.941 1.442-1.42 2.898-1.401.098-.001.264-.004.43.027.166 0 .365.03.596.061l-.004-3.677a1 1 0 0 1-.2-.015c-.049-.007-.083-.015-.099-.015-.064-.066-.128-.067-.193-.067zm-15.811.036c-1.986-.012-3.601.642-4.877 1.925-1.245 1.284-1.888 3.096-1.863 5.47-.008 2.543.704 4.374 2.074 5.495 1.367 1.124 2.994 1.674 4.781 1.688 2.185.011 3.897-.676 5.108-2.027.654-.708 1.076-1.416 1.236-2.085l-3.773.005c-.163.203-.326.405-.488.54-.494.407-1.187.549-2.014.558-.762.007-1.357-.12-1.891-.449-.899-.56-1.404-1.49-1.452-2.86l9.927-.005c.02-1.172-.023-2.106-.128-2.742-.176-1.066-.516-2.034-1.088-2.83-.605-.93-1.407-1.59-2.371-2.048a7.6 7.6 0 0 0-3.09-.635zm-3.083 5.852c.122-.87.445-1.576.937-2.117.492-.508 1.216-.781 2.109-.79.827-.011 1.557.249 2.126.745.566.495.871 1.228.948 2.163z" clip-rule="evenodd"/><path fill="#fff" fill-rule="evenodd" d="M125.68 47.617c-.407-.631-.912-1.162-1.582-1.522-.638-.362-1.373-.555-2.205-.545-1.799-.015-3.225.668-4.311 2.02-1.085 1.35-1.599 3.296-1.607 5.638q-.018 3.062 1.65 5.002c1.08 1.295 3.252 1.873 5.151 1.853 6.631-.003 6.573-5.724 6.573-5.724l-.037-13.152s-.163-.02-.422-.02c-.957 0-3.216.248-3.217 2.568zm-6.046 5.219c-.012-1.172.246-2.178.735-2.954.493-.808 1.255-1.184 2.321-1.195a2.66 2.66 0 0 1 1.807.65c.839.726 1.286 2.027 1.27 3.7.046 1.205-.243 2.178-.769 2.953-.525.775-1.288 1.153-2.32 1.13h-.037c-.982 0-1.739-.394-2.241-1.147-.508-.764-.753-1.866-.766-3.137m12.578-11.577.002 3.65 3.597-.004-.004-3.65zm6.828 15.987c-.049 1.642.626 2.47 1.993 2.623 1.368.153 2.668.14 3.833.026l.005-2.776-1.132.011c-.734.008-1.071-.324-1.078-.926l-.016-8.099.398-.003c1.035-.011 1.826-.79 1.815-1.793l-.008-.803-2.198-.01.008-2.31c.024-.97-.786-1.865-1.751-1.855l-1.901-.014zM106.926 41.76l-.805 2.618h3.131l.807-2.618zm39.134 11.095c-.013 2.01.571 3.743 1.751 5.17 1.149 1.427 2.922 2.143 5.256 2.152q3.547.012 5.275-2.164c1.15-1.453 1.733-3.165 1.745-5.172-.02-2.008-.605-3.708-1.753-5.17-1.146-1.459-2.921-2.176-5.253-2.186-2.382 0-4.129.753-5.275 2.2-1.153 1.45-1.733 3.163-1.746 5.17m3.698-.006c-.014-1.371.275-2.446.833-3.188.559-.741 1.389-1.118 2.421-1.13 1.066-.011 1.837.383 2.411 1.113s.851 1.798.833 3.169c.047 1.405-.241 2.48-.801 3.221-.558.743-1.354 1.121-2.422 1.131h-.043c-1.011 0-1.832-.391-2.366-1.11-.574-.731-.851-1.8-.866-3.206m-47.039-5.322c-1.251 1.284-1.898 3.097-1.875 5.474-.006 2.543.712 4.377 2.089 5.5 1.378 1.122 3.016 1.675 4.816 1.69 2.2.008 3.924-.68 5.143-2.03.66-.71 1.086-1.417 1.247-2.088l-3.801.005c-.163.204-.328.406-.494.54-.495.41-1.192.55-2.025.558-.768.01-1.368-.118-1.905-.447-.905-.56-1.414-1.491-1.463-2.863l9.997-.006c.021-1.172-.022-2.108-.13-2.743-.177-1.068-.519-2.034-1.094-2.832-.609-.931-1.416-1.59-2.387-2.05a7.7 7.7 0 0 0-3.105-.635h-.099c-2.001-.013-3.627.64-4.914 1.927m1.841 3.927c.126-.87.418-1.576.945-2.118.494-.506 1.226-.782 2.124-.79.834-.01 1.569.25 2.141.745.571.496.879 1.23.955 2.166zm-26.907 1.66c-.013 2.075.54 3.808 1.652 5.102q1.67 1.99 5.119 1.953 3.498.014 5.272-2.364c.757-.978 1.147-2.02 1.234-3.092l-3.864.007c-.093.738-.286 1.308-.68 1.782-.363.439-.994.678-1.892.688-1.234.014-2.107-.578-2.552-1.713-.238-.6-.38-1.435-.357-2.44-.013-1.07.113-1.907.373-2.547.454-1.21 1.347-1.82 2.613-1.8.9-.01 1.57.285 1.975.814.304.4.475.867.547 1.402l3.866-.01q-.33-2.956-2.042-4.093c-1.174-.757-2.644-1.145-4.444-1.158h-.046c-2.11 0-3.754.685-4.965 1.96-1.22 1.319-1.8 3.166-1.81 5.509zm14.659-.258.007 7.196 3.599-.004-.003-6.727c-.012-1.104.148-1.91.407-2.448.492-.941 1.453-1.421 2.918-1.402.1-.002.267-.003.434.03.166-.003.367.028.601.058l-.005-3.68c-.199-.095-.493-.095-.501-.095-7.964.016-7.457 7.072-7.457 7.072m39.9-6.79.013 13.89 3.595-.003-.013-13.892z" clip-rule="evenodd"/><path fill="#2D3277" fill-rule="evenodd" d="M35.9 19.001C18.244 19.052 3.96 28.508 4 40.087l.016 1.235c.048 12.28 12.57 22.17 32.02 22.096 19.585-.042 31.933-10.04 31.919-22.288-.038-.433-.007-.667-.014-1.235C67.901 28.381 53.633 19.001 36.044 19z" clip-rule="evenodd"/><path fill="#08C6A1" fill-rule="evenodd" d="M35.906 20.09c-16.818.046-30.429 9.003-30.398 20.004.032 11.001 13.691 19.88 30.51 19.831s30.43-9.005 30.4-20.005c-.032-10.97-13.62-19.83-30.376-19.83z" clip-rule="evenodd"/><path fill="#D8D8D8" fill-rule="evenodd" d="M37.156 26.595c-4.62.124-6.624 2.117-8.727 4.279l-2.69 2.936c0 .035-.33.338-.127.603.472.629 1.974.977 3.5.623.895-.21 2.048-1.127 3.166-2.04 1.22-.983 2.405-1.934 3.63-2.348 1.292-.416 2.093-.226 2.66-.067.6.193 1.302.551 2.41 1.406 2.115 1.576 10.583 8.979 12.06 10.23 1.192-.55 6.418-2.818 13.514-4.407-.644-3.795-2.947-7.272-6.439-10.1-4.863 2.064-10.835 3.172-16.654.31-.035 0-3.032-1.428-6.084-1.428l-.22.003zM5.433 37.633c.568.16 1.435.415 1.835.478 8.735 1.927 11.486 3.929 11.957 4.357a2.92 2.92 0 0 1 2.149-.995c.964-.011 1.835.479 2.377 1.238a3.12 3.12 0 0 1 2.085-.726c.398-.004.833.056 1.265.219 1.003.32 1.51.982 1.75 1.58.33-.137.727-.276 1.227-.249.465-.007.964.121 1.467.316 1.603.681 1.856 2.28 1.737 3.482.099 0 .233-.035.332-.003 1.896.008 3.477 1.557 3.467 3.46.008.601-.152 1.137-.413 1.64.536.294 1.84.945 3.002.797.93-.112 1.292-.449 1.423-.616.098-.136.163-.27.096-.37l-2.46-2.74s-.404-.395-.273-.53c.131-.168.399.062.567.227 1.245 1.052 2.792 2.634 2.792 2.634.034.034.137.233.702.326.5.094 1.364.016 1.956-.459.165-.134.297-.27.428-.438l-.033.034c.622-.808-.086-1.635-.086-1.635l-2.899-3.235s-.404-.394-.272-.53c.13-.134.4.062.568.227.906.756 2.218 2.04 3.431 3.261.234.163 1.34.85 2.759-.1.857-.578 1.048-1.28 1.008-1.817-.075-.698-.612-1.192-.612-1.192l-3.94-3.956s-.402-.363-.27-.532c.13-.166.398.062.567.228 1.242 1.053 4.672 4.147 4.672 4.147.033.032 1.207.853 2.66-.067.527-.34.852-.844.88-1.412a2.08 2.08 0 0 0-.652-1.626c-.1-.1-9.98-8.721-12.195-10.396-1.308-.95-2.009-1.21-2.775-1.3-.4-.062-.931.012-1.33.117-1.028.28-2.38 1.198-3.598 2.147-1.251 1.017-2.404 1.931-3.498 2.179-1.394.317-3.093-.062-3.865-.587-.3-.196-.537-.461-.64-.694-.274-.662.253-1.203.318-1.304l2.724-2.97c.328-.305.623-.642.953-.946-.864.11-1.692.353-2.488.565-.994.28-1.922.557-2.887.536-.398.005-2.53-.336-2.964-.465-2.468-.67-4.605-1.312-7.849-2.805-3.856 2.884-6.439 6.52-7.155 10.5m15.985 4.674c-1.196.015-2.15.962-2.134 2.162.013 1.202.956 2.158 2.152 2.145a2.25 2.25 0 0 0 1.49-.62s.033.031 0 .066c-.093.535-.235 2.472 1.769 3.249.802.323 1.497.082 2.058-.326.164-.136.198-.07.167.097-.06.502.018 1.569 1.522 2.15 1.135.454 1.795-.02 2.255-.428.199-.17.232-.136.268.132a2.68 2.68 0 0 0 2.692 2.568c1.496-.018 2.711-1.201 2.693-2.702-.017-1.469-1.228-2.655-2.725-2.67-.599.008-1.26.35-1.36.317-.032-.032.03-.267.095-.434.065-.135.866-2.582-1.105-3.391-1.505-.648-2.426.097-2.721.4-.098.102-.133.07-.134-.03-.04-.435-.218-1.632-1.52-2.017-1.836-.578-3.05.737-3.344 1.208-.145-1.057-1.007-1.876-2.091-1.876z" clip-rule="evenodd"/><path fill="url(#a)" fill-rule="evenodd" d="M37.156 26.595c-4.62.124-6.624 2.117-8.727 4.279l-2.69 2.936c0 .035-.33.338-.127.603.472.629 1.974.977 3.5.623.895-.21 2.048-1.127 3.166-2.04 1.22-.983 2.405-1.934 3.63-2.348 1.292-.416 2.093-.226 2.66-.067.6.193 1.302.551 2.41 1.406 2.115 1.576 10.583 8.979 12.06 10.23 1.192-.55 6.418-2.818 13.514-4.407-.644-3.795-2.947-7.272-6.439-10.1-4.863 2.064-10.835 3.172-16.654.31-.035 0-3.032-1.428-6.084-1.428l-.22.003zM5.433 37.633c.568.16 1.435.415 1.835.478 8.735 1.927 11.486 3.929 11.957 4.357a2.92 2.92 0 0 1 2.149-.995c.964-.011 1.835.479 2.377 1.238a3.12 3.12 0 0 1 2.085-.726c.398-.004.833.056 1.265.219 1.003.32 1.51.982 1.75 1.58.33-.137.727-.276 1.227-.249.465-.007.964.121 1.467.316 1.603.681 1.856 2.28 1.737 3.482.099 0 .233-.035.332-.003 1.896.008 3.477 1.557 3.467 3.46.008.601-.152 1.137-.413 1.64.536.294 1.84.945 3.002.797.93-.112 1.292-.449 1.423-.616.098-.136.163-.27.096-.37l-2.46-2.74s-.404-.395-.273-.53c.131-.168.399.062.567.227 1.245 1.052 2.792 2.634 2.792 2.634.034.034.137.233.702.326.5.094 1.364.016 1.956-.459.165-.134.297-.27.428-.438l-.033.034c.622-.808-.086-1.635-.086-1.635l-2.899-3.235s-.404-.394-.272-.53c.13-.134.4.062.568.227.906.756 2.218 2.04 3.431 3.261.234.163 1.34.85 2.759-.1.857-.578 1.048-1.28 1.008-1.817-.075-.698-.612-1.192-.612-1.192l-3.94-3.956s-.402-.363-.27-.532c.13-.166.398.062.567.228 1.242 1.053 4.672 4.147 4.672 4.147.033.032 1.207.853 2.66-.067.527-.34.852-.844.88-1.412a2.08 2.08 0 0 0-.652-1.626c-.1-.1-9.98-8.721-12.195-10.396-1.308-.95-2.009-1.21-2.775-1.3-.4-.062-.931.012-1.33.117-1.028.28-2.38 1.198-3.598 2.147-1.251 1.017-2.404 1.931-3.498 2.179-1.394.317-3.093-.062-3.865-.587-.3-.196-.537-.461-.64-.694-.274-.662.253-1.203.318-1.304l2.724-2.97c.328-.305.623-.642.953-.946-.864.11-1.692.353-2.488.565-.994.28-1.922.557-2.887.536-.398.005-2.53-.336-2.964-.465-2.468-.67-4.605-1.312-7.849-2.805-3.856 2.884-6.439 6.52-7.155 10.5m15.985 4.674c-1.196.015-2.15.962-2.134 2.162.013 1.202.956 2.158 2.152 2.145a2.25 2.25 0 0 0 1.49-.62s.033.031 0 .066c-.093.535-.235 2.472 1.769 3.249.802.323 1.497.082 2.058-.326.164-.136.198-.07.167.097-.06.502.018 1.569 1.522 2.15 1.135.454 1.795-.02 2.255-.428.199-.17.232-.136.268.132a2.68 2.68 0 0 0 2.692 2.568c1.496-.018 2.711-1.201 2.693-2.702-.017-1.469-1.228-2.655-2.725-2.67-.599.008-1.26.35-1.36.317-.032-.032.03-.267.095-.434.065-.135.866-2.582-1.105-3.391-1.505-.648-2.426.097-2.721.4-.098.102-.133.07-.134-.03-.04-.435-.218-1.632-1.52-2.017-1.836-.578-3.05.737-3.344 1.208-.145-1.057-1.007-1.876-2.091-1.876z" clip-rule="evenodd"/><path fill="#fff" fill-rule="evenodd" d="M37.156 26.595c-4.62.124-6.624 2.117-8.727 4.279l-2.69 2.936c0 .035-.33.338-.127.603.472.629 1.974.977 3.5.623.895-.21 2.048-1.127 3.166-2.04 1.22-.983 2.405-1.934 3.63-2.348 1.292-.416 2.093-.226 2.66-.067.6.193 1.302.551 2.41 1.406 2.115 1.576 10.583 8.979 12.06 10.23 1.192-.55 6.418-2.818 13.514-4.407-.644-3.795-2.947-7.272-6.439-10.1-4.863 2.064-10.835 3.172-16.654.31-.035 0-3.032-1.428-6.084-1.428l-.22.003zM5.433 37.633c.568.16 1.435.415 1.835.478 8.735 1.927 11.486 3.929 11.957 4.357a2.92 2.92 0 0 1 2.149-.995c.964-.011 1.835.479 2.377 1.238a3.12 3.12 0 0 1 2.085-.726c.398-.004.833.056 1.265.219 1.003.32 1.51.982 1.75 1.58.33-.137.727-.276 1.227-.249.465-.007.964.121 1.467.316 1.603.681 1.856 2.28 1.737 3.482.099 0 .233-.035.332-.003 1.896.008 3.477 1.557 3.467 3.46.008.601-.152 1.137-.413 1.64.536.294 1.84.945 3.002.797.93-.112 1.292-.449 1.423-.616.098-.136.163-.27.096-.37l-2.46-2.74s-.404-.395-.273-.53c.131-.168.399.062.567.227 1.245 1.052 2.792 2.634 2.792 2.634.034.034.137.233.702.326.5.094 1.364.016 1.956-.459.165-.134.297-.27.428-.438l-.033.034c.622-.808-.086-1.635-.086-1.635l-2.899-3.235s-.404-.394-.272-.53c.13-.134.4.062.568.227.906.756 2.218 2.04 3.431 3.261.234.163 1.34.85 2.759-.1.857-.578 1.048-1.28 1.008-1.817-.075-.698-.612-1.192-.612-1.192l-3.94-3.956s-.402-.363-.27-.532c.13-.166.398.062.567.228 1.242 1.053 4.672 4.147 4.672 4.147.033.032 1.207.853 2.66-.067.527-.34.852-.844.88-1.412a2.08 2.08 0 0 0-.652-1.626c-.1-.1-9.98-8.721-12.195-10.396-1.308-.95-2.009-1.21-2.775-1.3-.4-.062-.931.012-1.33.117-1.028.28-2.38 1.198-3.598 2.147-1.251 1.017-2.404 1.931-3.498 2.179-1.394.317-3.093-.062-3.865-.587-.3-.196-.537-.461-.64-.694-.274-.662.253-1.203.318-1.304l2.724-2.97c.328-.305.623-.642.953-.946-.864.11-1.692.353-2.488.565-.994.28-1.922.557-2.887.536-.398.005-2.53-.336-2.964-.465-2.468-.67-4.605-1.312-7.849-2.805-3.856 2.884-6.439 6.52-7.155 10.5m15.985 4.674c-1.196.015-2.15.962-2.134 2.162.013 1.202.956 2.158 2.152 2.145a2.25 2.25 0 0 0 1.49-.62s.033.031 0 .066c-.093.535-.235 2.472 1.769 3.249.802.323 1.497.082 2.058-.326.164-.136.198-.07.167.097-.06.502.018 1.569 1.522 2.15 1.135.454 1.795-.02 2.255-.428.199-.17.232-.136.268.132a2.68 2.68 0 0 0 2.692 2.568c1.496-.018 2.711-1.201 2.693-2.702-.017-1.469-1.228-2.655-2.725-2.67-.599.008-1.26.35-1.36.317-.032-.032.03-.267.095-.434.065-.135.866-2.582-1.105-3.391-1.505-.648-2.426.097-2.721.4-.098.102-.133.07-.134-.03-.04-.435-.218-1.632-1.52-2.017-1.836-.578-3.05.737-3.344 1.208-.145-1.057-1.007-1.876-2.091-1.876z" clip-rule="evenodd"/><path fill="#D8D8D8" fill-rule="evenodd" d="m37.413 25.557-.266.002c-3.83.114-5.98 1.476-7.431 2.663-1.4.05-2.629.367-3.692.679-.963.28-1.793.523-2.626.5a15 15 0 0 1-.624-.01l-.376-.01c-.933-.021-5.646-1.166-9.394-2.587-.398.272-.76.543-1.124.847 3.917 1.587 8.698 2.829 10.198 2.91q.65.044 1.302.085c1-.012 1.995-.29 2.959-.57a14 14 0 0 1 1.86-.458c-.165.17-.363.338-.527.54l-2.697 2.939c-.197.202-.69.808-.381 1.505q.204.448.709.793c.637.425 1.809.712 2.874.731.4-.005.8-.042 1.164-.114 1.131-.248 2.318-1.23 3.608-2.213.988-.813 2.443-1.833 3.54-2.146.297-.07.697-.143.996-.148a.8.8 0 0 1 .268.03c.734.092 1.436.35 2.68 1.27 2.22 1.674 12.122 10.295 12.221 10.36 0 0 .64.56.585 1.462-.028.5-.29.937-.783 1.278q-.647.407-1.296.416c-.667.008-1.103-.32-1.136-.32-.035-.033-3.438-3.127-4.683-4.148-.203-.163-.404-.294-.57-.325a.3.3 0 0 0-.264.136c-.199.237.04.567.276.799l3.945 3.954s.506.463.546 1.062c.042.667-.284 1.204-.947 1.647-.462.306-.927.477-1.393.453-.6.006-1.036-.29-1.137-.355l-.573-.56c-1.047-1.021-2.125-2.077-2.9-2.734-.201-.166-.403-.296-.602-.294a.3.3 0 0 0-.233.105c-.099.1-.162.268.073.564.102.133.204.233.204.233l2.904 3.233c.034.034.608.694.083 1.368l-.098.134-.264.27c-.494.409-1.16.45-1.394.452-.132.001-.266.003-.399-.028-.301-.063-.47-.129-.57-.228l-.034-.032c-.168-.164-1.62-1.649-2.83-2.635-.169-.131-.371-.297-.571-.293a.37.37 0 0 0-.265.105c-.23.27.108.665.276.796l2.466 2.706c0 .034-.033.068-.098.169-.098.134-.396.405-1.26.55-.1 0-.233.035-.333.036-.932.012-1.905-.443-2.409-.705.23-.502.356-1.038.35-1.57a3.637 3.637 0 0 0-3.677-3.66h-.133c.054-.934-.066-2.669-1.875-3.446a4.2 4.2 0 0 0-1.537-.348 3.2 3.2 0 0 0-1.13.214 2.98 2.98 0 0 0-1.785-1.513 3.7 3.7 0 0 0-1.303-.219c-.733.01-1.43.22-2.058.66-.575-.727-1.479-1.15-2.412-1.172a3.05 3.05 0 0 0-2.19.929c-.773-.59-3.794-2.489-11.947-4.324a44 44 0 0 1-1.84-.51c-.094.433-.155.87-.216 1.337 0 0 1.503.35 1.805.411 8.32 1.833 11.04 3.735 11.512 4.095-.163.37-.225.771-.253 1.206-.011 1.702 1.404 3.118 3.103 3.098.2-.002.367-.005.567-.04.249 1.266 1.092 2.222 2.366 2.708.366.128.734.224 1.1.219a5 5 0 0 0 .7-.075c.24.597.75 1.325 1.922 1.811.4.162.835.257 1.235.252.332-.004.633-.075.964-.178a3.62 3.62 0 0 0 3.394 2.259c1-.011 1.928-.39 2.62-1.133.603.327 1.843.911 3.108.93a2 2 0 0 0 .467-.04c1.264-.148 1.825-.656 2.087-1.027.032-.068.098-.134.131-.202.3.097.634.159 1.001.155.7-.01 1.33-.25 1.99-.726.662-.475 1.12-1.147 1.18-1.717v-.033c.234.032.432.062.665.06a3.73 3.73 0 0 0 2.06-.662c1.289-.849 1.508-1.953 1.466-2.654.235.031.469.062.669.058.665-.007 1.296-.215 1.924-.59a2.87 2.87 0 0 0 1.34-2.186c.06-.601-.115-1.233-.42-1.764 2.155-.927 7.032-2.722 12.78-4.064-.038-.432-.11-.898-.183-1.331-6.846 1.52-12.05 3.787-13.344 4.37-3.03-2.632-10.101-8.752-11.985-10.163-1.076-.82-1.847-1.246-2.482-1.438a3.8 3.8 0 0 0-1.202-.186c-.5.008-.999.08-1.53.254-1.229.381-2.45 1.365-3.639 2.313l-.065.035c-1.089.88-2.246 1.797-3.109 1.973-.365.072-.765.143-1.165.148-.965.012-1.835-.276-2.173-.674-.07-.064-.036-.165.095-.334l.033-.035 2.664-2.901c2.074-2.095 4.05-4.09 8.614-4.212l.233-.003c2.832-.002 5.68 1.263 5.981 1.394 2.648 1.303 5.423 1.935 8.154 1.935 2.868-.002 5.823-.74 8.939-2.18a14 14 0 0 0-1.077-.854c-2.752 1.203-5.344 1.802-7.877 1.799-2.564-.002-5.139-.603-7.652-1.807-.133-.064-3.236-1.521-6.495-1.521zM19.515 44.534c-.012-1.068.876-1.947 1.943-1.96.965-.01 1.808.745 1.92 1.711l.073.533.294-.437c.034-.066.819-1.245 2.285-1.262.265-.005.566.026.834.122 1.17.353 1.35 1.418 1.389 1.852.037.267.203.265.236.265.101-.001.166-.07.232-.105a2 2 0 0 1 1.425-.617c.333-.004.7.09 1.07.254 1.842.776 1.004 3.123 1.004 3.158-.163.402-.16.57-.025.668l.067.032.068-.001c.066-.002.198-.036.364-.105a3 3 0 0 1 .997-.212 2.546 2.546 0 0 1 2.529 2.505c-.017 1.301-1.137 2.416-2.536 2.434-1.365.016-2.445-1.038-2.528-2.406-.001-.1-.005-.432-.271-.43-.1.001-.2.07-.298.17-.297.271-.66.577-1.227.55a1.76 1.76 0 0 1-.802-.19c-1.44-.582-1.452-1.55-1.39-1.952.031-.1.031-.2-.037-.3l-.101-.066-.1.002c-.066.001-.133.036-.231.103-.396.306-.795.442-1.228.45a1.6 1.6 0 0 1-.667-.126c-1.877-.745-1.732-2.514-1.637-3.052-.002-.099-.003-.2-.07-.23l-.135-.1-.131.136c-.362.372-.86.544-1.36.55h-.023c-1.057 0-1.92-.884-1.933-1.944" clip-rule="evenodd"/><path fill="#2D3277" fill-rule="evenodd" d="m37.413 25.557-.266.002c-3.83.114-5.98 1.476-7.431 2.663-1.4.05-2.629.367-3.692.679-.963.28-1.793.523-2.626.5a15 15 0 0 1-.624-.01l-.376-.01c-.933-.021-5.646-1.166-9.394-2.587-.398.272-.76.543-1.124.847 3.917 1.587 8.698 2.829 10.198 2.91q.65.044 1.302.085c1-.012 1.995-.29 2.959-.57a14 14 0 0 1 1.86-.458c-.165.17-.363.338-.527.54l-2.697 2.939c-.197.202-.69.808-.381 1.505q.204.448.709.793c.637.425 1.809.712 2.874.731.4-.005.8-.042 1.164-.114 1.131-.248 2.318-1.23 3.608-2.213.988-.813 2.443-1.833 3.54-2.146.297-.07.697-.143.996-.148a.8.8 0 0 1 .268.03c.734.092 1.436.35 2.68 1.27 2.22 1.674 12.122 10.295 12.221 10.36 0 0 .64.56.585 1.462-.028.5-.29.937-.783 1.278q-.647.407-1.296.416c-.667.008-1.103-.32-1.136-.32-.035-.033-3.438-3.127-4.683-4.148-.203-.163-.404-.294-.57-.325a.3.3 0 0 0-.264.136c-.199.237.04.567.276.799l3.945 3.954s.506.463.546 1.062c.042.667-.284 1.204-.947 1.647-.462.306-.927.477-1.393.453-.6.006-1.036-.29-1.137-.355l-.573-.56c-1.047-1.021-2.125-2.077-2.9-2.734-.201-.166-.403-.296-.602-.294a.3.3 0 0 0-.233.105c-.099.1-.162.268.073.564.102.133.204.233.204.233l2.904 3.233c.034.034.608.694.083 1.368l-.098.134-.264.27c-.494.409-1.16.45-1.394.452-.132.001-.266.003-.399-.028-.301-.063-.47-.129-.57-.228l-.034-.032c-.168-.164-1.62-1.649-2.83-2.635-.169-.131-.371-.297-.571-.293a.37.37 0 0 0-.265.105c-.23.27.108.665.276.796l2.466 2.706c0 .034-.033.068-.098.169-.098.134-.396.405-1.26.55-.1 0-.233.035-.333.036-.932.012-1.905-.443-2.409-.705.23-.502.356-1.038.35-1.57a3.637 3.637 0 0 0-3.677-3.66h-.133c.054-.934-.066-2.669-1.875-3.446a4.2 4.2 0 0 0-1.537-.348 3.2 3.2 0 0 0-1.13.214 2.98 2.98 0 0 0-1.785-1.513 3.7 3.7 0 0 0-1.303-.219c-.733.01-1.43.22-2.058.66-.575-.727-1.479-1.15-2.412-1.172a3.05 3.05 0 0 0-2.19.929c-.773-.59-3.794-2.489-11.947-4.324a44 44 0 0 1-1.84-.51c-.094.433-.155.87-.216 1.337 0 0 1.503.35 1.805.411 8.32 1.833 11.04 3.735 11.512 4.095-.163.37-.225.771-.253 1.206-.011 1.702 1.404 3.118 3.103 3.098.2-.002.367-.005.567-.04.249 1.266 1.092 2.222 2.366 2.708.366.128.734.224 1.1.219a5 5 0 0 0 .7-.075c.24.597.75 1.325 1.922 1.811.4.162.835.257 1.235.252.332-.004.633-.075.964-.178a3.62 3.62 0 0 0 3.394 2.259c1-.011 1.928-.39 2.62-1.133.603.327 1.843.911 3.108.93a2 2 0 0 0 .467-.04c1.264-.148 1.825-.656 2.087-1.027.032-.068.098-.134.131-.202.3.097.634.159 1.001.155.7-.01 1.33-.25 1.99-.726.662-.475 1.12-1.147 1.18-1.717v-.033c.234.032.432.062.665.06a3.73 3.73 0 0 0 2.06-.662c1.289-.849 1.508-1.953 1.466-2.654.235.031.469.062.669.058.665-.007 1.296-.215 1.924-.59a2.87 2.87 0 0 0 1.34-2.186c.06-.601-.115-1.233-.42-1.764 2.155-.927 7.032-2.722 12.78-4.064-.038-.432-.11-.898-.183-1.331-6.846 1.52-12.05 3.787-13.344 4.37-3.03-2.632-10.101-8.752-11.985-10.163-1.076-.82-1.847-1.246-2.482-1.438a3.8 3.8 0 0 0-1.202-.186c-.5.008-.999.08-1.53.254-1.229.381-2.45 1.365-3.639 2.313l-.065.035c-1.089.88-2.246 1.797-3.109 1.973-.365.072-.765.143-1.165.148-.965.012-1.835-.276-2.173-.674-.07-.064-.036-.165.095-.334l.033-.035 2.664-2.901c2.074-2.095 4.05-4.09 8.614-4.212l.233-.003c2.832-.002 5.68 1.263 5.981 1.394 2.648 1.303 5.423 1.935 8.154 1.935 2.868-.002 5.823-.74 8.939-2.18a14 14 0 0 0-1.077-.854c-2.752 1.203-5.344 1.802-7.877 1.799-2.564-.002-5.139-.603-7.652-1.807-.133-.064-3.236-1.521-6.495-1.521zM19.515 44.534c-.012-1.068.876-1.947 1.943-1.96.965-.01 1.808.745 1.92 1.711l.073.533.294-.437c.034-.066.819-1.245 2.285-1.262.265-.005.566.026.834.122 1.17.353 1.35 1.418 1.389 1.852.037.267.203.265.236.265.101-.001.166-.07.232-.105a2 2 0 0 1 1.425-.617c.333-.004.7.09 1.07.254 1.842.776 1.004 3.123 1.004 3.158-.163.402-.16.57-.025.668l.067.032.068-.001c.066-.002.198-.036.364-.105a3 3 0 0 1 .997-.212 2.546 2.546 0 0 1 2.529 2.505c-.017 1.301-1.137 2.416-2.536 2.434-1.365.016-2.445-1.038-2.528-2.406-.001-.1-.005-.432-.271-.43-.1.001-.2.07-.298.17-.297.271-.66.577-1.227.55a1.76 1.76 0 0 1-.802-.19c-1.44-.582-1.452-1.55-1.39-1.952.031-.1.031-.2-.037-.3l-.101-.066-.1.002c-.066.001-.133.036-.231.103-.396.306-.795.442-1.228.45a1.6 1.6 0 0 1-.667-.126c-1.877-.745-1.732-2.514-1.637-3.052-.002-.099-.003-.2-.07-.23l-.135-.1-.131.136c-.362.372-.86.544-1.36.55h-.023c-1.057 0-1.92-.884-1.933-1.944" clip-rule="evenodd"/></svg><svg width="394" height="82" y="1220" fill="none" viewBox="-2 -2 394 82"><path fill="#fff" d="M78.16 19.621c-8.52 0-16.134 4.402-16.134 12.536 0 9.328 13.504 9.972 13.504 14.658 0 1.973-2.269 3.74-6.143 3.74-5.498 0-9.607-2.468-9.607-2.468l-1.759 8.207s4.734 2.085 11.02 2.085c9.315 0 16.645-4.619 16.645-12.891 0-9.857-13.56-10.482-13.56-14.831 0-1.546 1.862-3.24 5.725-3.24 4.359 0 7.915 1.795 7.915 1.795l1.72-7.927s-3.869-1.664-9.326-1.664M.206 20.22 0 21.416s3.585.654 6.813 1.958c4.157 1.496 4.453 2.367 5.153 5.072l7.63 29.316h10.226l15.755-37.543H35.374L25.25 45.745l-4.13-21.637c-.38-2.476-2.299-3.889-4.648-3.889H.206zm49.474 0-8.005 37.543h9.73l7.976-37.543zm54.265 0c-2.346 0-3.589 1.252-4.501 3.44L85.189 57.763h10.203l1.974-5.684h12.431l1.2 5.684H120l-7.854-37.543zm1.327 10.143 3.024 14.088h-8.102z"/></svg><svg width="394" height="82" y="1302" viewBox="-2 -2 444 82"><path fill="#143281" fill-rule="evenodd" d="M61.024 32.148c-.063 5.294 4.735 8.244 8.349 10.004 3.712 1.802 4.958 2.956 4.944 4.566-.028 2.468-2.962 3.556-5.708 3.598-4.792.074-7.575-1.292-9.792-2.322l-1.726 8.054c2.226 1.02 6.34 1.908 10.603 1.952 10.017 0 16.568-4.932 16.6-12.576.042-9.698-13.45-10.234-13.359-14.568.031-1.317 1.289-2.718 4.045-3.077 1.365-.178 5.133-.315 9.4 1.643l1.676-7.793C83.76 20.799 80.809 20 77.134 20c-9.423 0-16.057 4.996-16.11 12.148m41.141-11.475a4.34 4.34 0 0 0-4.06 2.695L83.798 57.427H93.81l1.988-5.492h12.231l1.152 5.492H118l-7.698-36.754zm1.397 9.93 2.889 13.8h-7.91zm-54.668-9.93-7.888 36.754h9.535l7.885-36.754zm-14.109 0-9.923 25.015-4.014-21.27c-.47-2.374-2.331-3.745-4.398-3.745H.225L0 21.738c3.33.722 7.114 1.887 9.407 3.128 1.403.76 1.803 1.422 2.265 3.228l7.602 29.333h10.079L44.8 20.673z"/></svg></svg>